<?xml version="1.0" encoding="utf-8"?>
<!-- Generator: Adobe Illustrator 25.2.0, SVG Export Plug-In . SVG Version: 6.00 Build 0)  -->
<svg version="1.1" id="Layer_1" xmlns="http://www.w3.org/2000/svg" xmlns:xlink="http://www.w3.org/1999/xlink" x="0px" y="0px"
	 viewBox="0 0 370 261" style="enable-background:new 0 0 370 261;" xml:space="preserve">
<style type="text/css">
	.st0{fill:#DFF3FC;}
	.st1{fill:#A2C7EB;}
	.st2{fill:none;stroke:#A2C7EB;stroke-width:0.7104;stroke-miterlimit:10;}
	.st3{fill:#242A36;}
	.st4{fill:#0097D8;}
	.st5{fill:#FFFFFF;}
	.st6{fill:none;stroke:#6F8BBF;stroke-width:0.7104;stroke-linecap:round;stroke-miterlimit:10;}
	.st7{fill:#E06A58;}
	.st8{fill:#04A89B;}
	.st9{fill:#0A2240;}
	.st10{fill:#F9A07B;}
	.st11{fill:#00D6CB;}
	.st12{fill:#00FFEC;}
	.st13{fill:#325F73;}
	.st14{fill:#0B2D50;}
	.st15{fill:#3C738C;}
	.st16{fill:#56C4F9;}
	.st17{fill:#225570;}
	.st18{fill:none;stroke:#0B2D50;stroke-width:1.4208;stroke-linecap:round;stroke-miterlimit:10;}
	.st19{fill:none;stroke:#CC454E;stroke-width:1.4208;stroke-linecap:round;stroke-miterlimit:10;}
	.st20{fill:#262D40;}
	.st21{fill:#CC454E;}
	.st22{fill:#E8729B;}
	.st23{fill:#3D86E0;}
	.st24{fill:#3A92C9;}
	.st25{fill:none;stroke:#3A92C9;stroke-width:1.4208;stroke-linecap:round;stroke-miterlimit:10;}
	.st26{fill:none;stroke:#CC454E;stroke-width:0.7104;stroke-linecap:round;stroke-miterlimit:10;}
	.st27{fill:none;stroke:#04A89B;stroke-miterlimit:10;}
</style>
<g id="XMLID_463_">
	<path id="XMLID_465_" class="st0" d="M315.1,243.1c33.7-25.7,48.8-96.8-6-131.7c-36.3-23.1-58.8-9.9-99.6-25.2
		c-49.8-18.6-57.2-75-117.8-47.2C59.5,53.6,37.3,95,33.4,142c-3.8,46,12.5,77.6,45.8,99.2C157.5,244.6,236,244,315.1,243.1z"/>
	<path id="XMLID_464_" class="st0" d="M176.5,40.7c-5.1,20.5,13.8,40.7,33.8,49.1c19.9,8.4,42.8,7.4,64.2,3.4
		c9.2-1.7,18.7-4.2,25.8-10c7.2-5.9,11.3-16.1,7.4-24.3c-3.5-7.3-11.9-11-19.9-12.9c-8-1.9-16.6-2.7-23.7-6.7
		c-6.8-3.8-11.6-10.1-17.5-15.1c-10.9-9.2-26.2-13.8-40.4-10.9C191.8,16.2,180.8,23.3,176.5,40.7z"/>
</g>
<g id="XMLID_453_">
	<path id="XMLID_460_" class="st1" d="M329.1,134.8v-15.5h-5.9c-0.7-2.7-1.8-5.3-3.2-7.6l4.1-4.2l-10.9-10.9l-4.2,4.1
		c-2.4-1.4-4.9-2.5-7.6-3.2v-5.9H286v5.9c-2.7,0.7-5.3,1.8-7.6,3.2l-4.2-4.1l-10.9,10.9l4.1,4.2c-1.4,2.4-2.4,4.9-3.2,7.6h-5.9v15.5
		h5.9c0.7,2.7,1.8,5.3,3.2,7.6l-4.1,4.2l10.9,10.9l4.2-4.1c2.4,1.4,4.9,2.4,7.6,3.2v5.9h15.5v-5.9c2.7-0.7,5.3-1.8,7.6-3.2l4.2,4.1
		l10.9-10.9l-4.1-4.2c1.4-2.4,2.5-4.9,3.2-7.6H329.1z M293.8,140.5c-7.4,0-13.4-6-13.4-13.4c0-7.4,6-13.4,13.4-13.4
		s13.4,6,13.4,13.4C307.2,134.5,301.2,140.5,293.8,140.5z"/>
	<path id="XMLID_457_" class="st2" d="M282.3,173.6l-2.9-7.7l-2.9,1.1c-0.9-1.2-1.9-2.3-3-3.2l1.3-2.9l-7.5-3.3l-1.3,2.8
		c-1.4-0.2-2.9-0.3-4.4-0.1l-1.1-2.9l-7.7,2.9l1.1,2.9c-1.2,0.9-2.3,1.9-3.2,3l-2.9-1.3l-3.3,7.5l2.8,1.3c-0.2,1.4-0.3,2.9-0.1,4.4
		l-2.9,1.1l2.9,7.7l2.9-1.1c0.9,1.2,1.9,2.3,3,3.2l-1.1,3l7.5,3.3l1.3-2.8c1.4,0.2,2.9,0.3,4.4,0.1l1.1,2.9l7.7-2.9l-1.1-2.9
		c1.2-0.9,2.3-1.9,3.2-3l2.9,1.3l3.3-7.5l-2.8-1.3c0.2-1.4,0.3-2.9,0.1-4.4L282.3,173.6z M265.9,183.1c-3.7,1.4-7.8-0.4-9.2-4.1
		c-1.4-3.7,0.4-7.8,4.1-9.2s7.8,0.4,9.2,4.1C271.4,177.6,269.6,181.7,265.9,183.1z"/>
	<path id="XMLID_454_" class="st2" d="M257.2,146.7l-2-5.2l-2,0.8c-0.6-0.8-1.3-1.5-2-2.1l0.9-1.9L247,136l-0.9,1.9
		c-1-0.2-2-0.2-3-0.1l-0.8-2l-5.2,2l0.8,2c-0.8,0.6-1.5,1.3-2.1,2l-1.9-0.9l-2.3,5.1l1.9,0.9c-0.2,1-0.2,2-0.1,3l-2,0.8l2,5.2l2-0.8
		c0.6,0.8,1.3,1.5,2,2.1l-0.9,1.9l5.1,2.3l0.9-1.9c1,0.2,2,0.2,3,0.1l0.8,2l5.2-2l-0.8-2c0.8-0.6,1.5-1.3,2.1-2l1.9,0.9l2.3-5.1
		l-1.9-0.9c0.2-1,0.2-2,0.1-3L257.2,146.7z M246.1,153.1c-2.5,1-5.3-0.3-6.2-2.8c-1-2.5,0.3-5.3,2.8-6.2c2.5-1,5.3,0.3,6.2,2.8
		C249.8,149.4,248.6,152.2,246.1,153.1z"/>
</g>
<path id="XMLID_451_" class="st3" d="M260.6,52.7c0,10.1-4.7,19-12,24.8c-5.4,4.3-12.2,6.8-19.6,6.8c-7.4,0-14.2-2.5-19.6-6.8
	c-7.3-5.8-12-14.8-12-24.8c0-17.5,14.2-31.6,31.6-31.6S260.6,35.3,260.6,52.7z"/>
<g id="XMLID_438_">
	<g id="XMLID_448_">
		<path id="XMLID_450_" class="st4" d="M195.8,116.2v-12.1c0-3.3,2.7-6,6-6h38c3.3,0,6,2.7,6,6v12.1c0,3.3-2.7,6-6,6h-38
			C198.5,122.1,195.8,119.5,195.8,116.2z"/>
		<polyline id="XMLID_449_" class="st4" points="211.8,115.5 193.4,133.5 223.3,118.4 		"/>
	</g>
	<g id="XMLID_439_">
		<path id="XMLID_447_" class="st5" d="M200.4,103.8L200.4,103.8c0-0.6,0.4-1,0.9-1h18.8c0.5,0,0.9,0.4,0.9,0.9v0.1
			c0,0.5-0.4,0.9-0.9,0.9h-18.8C200.8,104.7,200.4,104.3,200.4,103.8z"/>
		<path id="XMLID_446_" class="st5" d="M221.8,103.8L221.8,103.8c0-0.6,0.4-1,0.9-1h16.4c0.5,0,0.9,0.4,0.9,0.9v0.1
			c0,0.5-0.4,0.9-0.9,0.9h-16.4C222.2,104.7,221.8,104.3,221.8,103.8z"/>
		<path id="XMLID_445_" class="st5" d="M214.7,107.8L214.7,107.8c0-0.6,0.4-1,0.9-1h23.6c0.5,0,0.9,0.4,0.9,0.9v0.1
			c0,0.5-0.4,0.9-0.9,0.9h-23.6C215.1,108.7,214.7,108.3,214.7,107.8z"/>
		<path id="XMLID_444_" class="st5" d="M200.4,107.8L200.4,107.8c0-0.6,0.4-1,0.9-1h10.5c0.5,0,0.9,0.4,0.9,0.9v0.1
			c0,0.5-0.4,0.9-0.9,0.9h-10.5C200.8,108.7,200.4,108.3,200.4,107.8z"/>
		<path id="XMLID_443_" class="st5" d="M217.9,111.9L217.9,111.9c0-0.6,0.4-1,0.9-1h20.3c0.5,0,0.9,0.4,0.9,0.9v0.1
			c0,0.5-0.4,0.9-0.9,0.9h-20.3C218.3,112.8,217.9,112.4,217.9,111.9z"/>
		<path id="XMLID_442_" class="st5" d="M200.4,111.9L200.4,111.9c0-0.6,0.4-1,0.9-1h14c0.5,0,0.9,0.4,0.9,0.9v0.1
			c0,0.5-0.4,0.9-0.9,0.9h-14C200.8,112.8,200.4,112.4,200.4,111.9z"/>
		<path id="XMLID_441_" class="st5" d="M200.4,115.9L200.4,115.9c0-0.6,0.4-1,0.9-1h5.2c0.5,0,0.9,0.4,0.9,0.9v0.1
			c0,0.5-0.4,0.9-0.9,0.9h-5.2C200.8,116.8,200.4,116.4,200.4,115.9z"/>
		<path id="XMLID_440_" class="st5" d="M209.2,115.9L209.2,115.9c0-0.6,0.4-1,0.9-1h29c0.5,0,0.9,0.4,0.9,0.9v0.1
			c0,0.5-0.4,0.9-0.9,0.9h-29C209.6,116.8,209.2,116.4,209.2,115.9z"/>
	</g>
</g>
<ellipse id="XMLID_436_" class="st3" cx="73.2" cy="83.5" rx="29.2" ry="29.2"/>
<path id="XMLID_434_" class="st3" d="M93.4,99.2c1-0.5,17.8,0.3,17.8,0.3L99.1,88.4L93.4,99.2z"/>
<g id="XMLID_428_">
	<g>
		<g id="XMLID_22_">
			<ellipse id="XMLID_23_" class="st3" cx="130.2" cy="35.1" rx="28.2" ry="28.2"/>
		</g>
	</g>
</g>
<g id="XMLID_379_">
	<g id="XMLID_412_">
		<g id="XMLID_425_">
			<path id="XMLID_427_" class="st1" d="M198,196.8c-1.4-21.1,7.9-43,23.5-55.5C221.9,162.5,212.8,184,198,196.8z"/>
			<path id="XMLID_426_" class="st6" d="M218.9,146.9c-6.6,12.2-12.2,25-17,38.2c-5.7,16-10.2,33.1-20.1,46.5"/>
		</g>
		<g id="XMLID_422_">
			<path id="XMLID_424_" class="st1" d="M193.1,210.1c7.9-17.6,23.5-31,40.8-34.7C226.5,194.2,210,208.7,193.1,210.1z"/>
			<path id="XMLID_423_" class="st6" d="M229.6,179.2c-11.8,10.4-23.8,20.5-36,30.2"/>
		</g>
		<g id="XMLID_419_">
			<path id="XMLID_421_" class="st1" d="M188.4,225.4c10.5-15.7,30-23.9,46.1-19.5C222.7,221.5,203.2,229.7,188.4,225.4z"/>
			<path id="XMLID_420_" class="st6" d="M230.6,207.1c-13.8,8.6-28.7,15-44.1,18.9"/>
		</g>
		<g id="XMLID_416_">
			<path id="XMLID_418_" class="st1" d="M194.1,204.7c3.4-17.7-1.7-37.5-12.9-50.5C176.6,171.6,181,192,194.1,204.7z"/>
			<path id="XMLID_417_" class="st6" d="M182.3,158.7c2.2,16.5,6.2,31.9,12.3,47"/>
		</g>
		<g id="XMLID_413_">
			<path id="XMLID_415_" class="st1" d="M188.3,219.8c-1.4-18.2-10.8-35.3-24.4-44.8c0.8,9.6,3.4,18.9,7.4,27.4
				C176,212.2,182.9,218.3,188.3,219.8z"/>
			<path id="XMLID_414_" class="st6" d="M165.9,178.7c5.4,15.2,13.1,29.3,22.7,41.5"/>
		</g>
	</g>
	<g id="XMLID_396_">
		<g id="XMLID_409_">
			<path id="XMLID_411_" class="st1" d="M293.8,215.4c7.5-19.4,24.6-35.1,43.5-39.9C329,194.7,312.1,210.1,293.8,215.4z"/>
			<path id="XMLID_410_" class="st6" d="M332.7,179.6c-10.8,8.2-21.1,17.3-30.7,27.1c-11.6,11.9-22.6,25.3-36.8,33.2"/>
		</g>
		<g id="XMLID_406_">
			<path id="XMLID_408_" class="st1" d="M284,225.3c14.2-12.5,33.5-18,50.3-14.3C320,224.8,299.5,230.9,284,225.3z"/>
			<path id="XMLID_407_" class="st6" d="M328.9,212.7c-14.7,4.4-29.4,8.5-44.2,12.3"/>
		</g>
		<g id="XMLID_403_">
			<path id="XMLID_405_" class="st1" d="M273.6,237.1c15.8-9.7,36.3-9.1,48.7,1.5C305.4,247.5,284.8,246.9,273.6,237.1z"/>
			<path id="XMLID_404_" class="st6" d="M318.4,238c-15.7,2.1-31.5,1.7-46.7-1.2"/>
		</g>
		<g id="XMLID_400_">
			<path id="XMLID_402_" class="st1" d="M287.1,220.9c10.2-14.4,13.9-34.1,9.3-50.3C285.2,184.3,280.7,204.2,287.1,220.9z"/>
			<path id="XMLID_401_" class="st6" d="M295.6,175.1c-4.8,15.6-7.6,30.9-8.4,46.9"/>
		</g>
		<g id="XMLID_397_">
			<path id="XMLID_399_" class="st1" d="M275.8,232c6.2-16.8,5-35.9-3.2-49.8c-3.3,8.9-4.8,18.2-4.7,27.4
				C268,220.2,271.6,228.5,275.8,232z"/>
			<path id="XMLID_398_" class="st6" d="M272.8,186.3c-1.5,15.7-0.4,31.4,3.1,46.2"/>
		</g>
	</g>
	<g id="XMLID_380_">
		<path id="XMLID_395_" class="st1" d="M82.6,181.5c-7.6-23.2-28.8-42-53.5-47.3C39.5,154.3,58.3,170.3,82.6,181.5z"/>
		<path id="XMLID_394_" class="st1" d="M83.9,185.1c-16.6-9.4-37.5-11.5-55.6-5.5C45.1,188,64.9,190.3,83.9,185.1z"/>
		<path id="XMLID_393_" class="st1" d="M88.5,190.2c-18-2.5-36.8,1.9-51.4,12.1C53.6,208.3,73.5,204.4,88.5,190.2z"/>
		<path id="XMLID_392_" class="st1" d="M94.1,201.2c-17.8-0.1-35.3,8.4-45.8,22.1c7.9,1.6,16.3,0.6,23.6-2.7
			C79.2,217.4,85.3,211.8,94.1,201.2z"/>
		<path id="XMLID_391_" class="st1" d="M106.6,219.6c-17.6-3-36.3,2.4-48.9,14.2c7.6,2.9,16,3.3,23.8,1.3
			C89.2,233.1,96.1,228.6,106.6,219.6z"/>
		<path id="XMLID_390_" class="st1" d="M87.7,182.6C76.1,167,72.9,145.9,79.5,128c5,8.5,9.4,17.5,11.4,27.1
			C92.9,164.7,92.5,174.9,87.7,182.6z"/>
		<path id="XMLID_389_" class="st1" d="M94.8,197.7c-2.7-16.6,2.9-34.2,14.9-46.2C111.1,168.7,105.8,186.2,94.8,197.7z"/>
		<g id="XMLID_381_">
			<path id="XMLID_388_" class="st6" d="M34.5,138.4c35.3,22.6,62.9,56.2,77.5,94.5"/>
			<path id="XMLID_387_" class="st6" d="M80.6,136.3c4.3,17.4,6.9,35.2,7.8,53.1"/>
			<path id="XMLID_386_" class="st6" d="M107,158.2c-1.4,14.1-5.8,27.8-12.7,40.2"/>
			<path id="XMLID_385_" class="st6" d="M35.7,180c16.2,3.1,32.6,4.7,49.1,5"/>
			<path id="XMLID_384_" class="st6" d="M45.5,200.9c14.9-1.1,29.6-4.7,43.2-10.6"/>
			<path id="XMLID_383_" class="st6" d="M54.4,220.8c13.8-6.9,27.5-13.7,41.3-20.6"/>
			<path id="XMLID_382_" class="st6" d="M63.4,232.9c18-3.5,23.3-7.6,43.3-13.3"/>
		</g>
	</g>
</g>
<path id="XMLID_378_" class="st7" d="M177.2,200c0,0,1.6,14.3,3.3,15.4c3.1,2.1,39.1,6.8,39.1,6.8l-1.2,9.4c0,0-49.3,4.4-51.4,2
	c-3.6-4.3-10-24.9-10-24.9L177.2,200z"/>
<path id="XMLID_376_" class="st8" d="M153.4,163.3l4-9.6c0,0,10.8,5.1,14.4,11.4c3.8,6.7,8.5,42.4,8.5,42.4s-19.1,4.4-22.6,2.5
	S153.4,163.3,153.4,163.3z"/>
<path id="XMLID_375_" class="st9" d="M123,118.9c-2.8-1-5.7-1.9-8.7-1.7s-6,1.8-7.1,4.4c-0.7,1.9-0.4,4.1-1.5,5.7s-3.3,2.3-5.3,2.4
	c-2,0.1-4.1-0.1-6.1,0.1c-6.3,0.8-10.7,7.6-8.7,13.2c0.8,2.2,2.5,4.3,2.1,6.6c-0.4,2.5-3,4.1-4.1,6.4c-1.4,3.1,0.3,6.8,3.1,8.8
	c2.8,2.1,6.4,2.9,9.9,3.4c4.9,0.7,9.9,1.1,14.7,0c4.8-1,9.4-3.6,11.9-7.5c1.1-1.7,1.8-3.7,3-5.4c2.6-3.4,7.3-4.7,11-7.1
	c4-2.6,7-7.8,4.6-11.8c-2.3-3.9-8.2-4.7-10.6-8.5c-1-1.6-1.2-3.4-1.9-5.2C128.7,121.3,127.2,120.4,123,118.9z"/>
<g id="XMLID_372_">
	<path id="XMLID_374_" class="st10" d="M139.3,166.2c0.7,0.8,1.5,1.7,2.7,1.8s2.2-0.8,3-1.6c4-4.3,6.7-9.5,7.8-14.9
		c-1-0.6-2-1.1-2.8-1.6s-1.4-1.2-1.8-1.9c-0.2-0.6-0.3-1.2-0.3-1.8c0.6-5.3,1.1-8.3,2.9-13.7c-8.9-2-17.3-4.4-22.1-8.4
		c-0.6,2.5-1.3,7.4-2.8,12.2c-1.6,5.1-4.1,10.2-8.2,12.3C125.9,153.3,133.3,159.3,139.3,166.2z"/>
	<path id="XMLID_373_" class="st7" d="M147.9,146.1c-0.1,0.6,0,1.3,0.3,1.8c-5.3,6.4-17.1-2-22.2-11.8c1.5-4.8,2.2-9.7,2.8-12.2
		c4.8,4,13.2,6.4,22.1,8.4C149,137.8,148.5,140.7,147.9,146.1z"/>
</g>
<path id="XMLID_370_" class="st11" d="M162.6,223.4c-1.2,7.7,7.2,16,7.4,20.1c-17.7,0-54.7,1.1-73.6-1.5c-0.9-4.8,8.5-15.5,8.5-26
	c0-1.4-0.1-2.9-0.2-4.6c-0.3-4.7-1-10.3-1.8-16.1c-2.1-15.4-4.9-31.9-2.8-35.4c4-6.7,13.5-11.2,18.2-13.1c1.6-0.7,2.7-1,2.7-1.1
	c5.9,10,17.9,18.6,22.4,18.2c1.3-0.1,5-1.4,7.5-13.8c1,0.5,1.9,1.1,2.9,1.5c4.7,2.4,9.1,4.4,10.3,7.6c3.3,8.2,6.6,29,5.9,36.4
	c-0.7,7.5-3.7,13.2-5.8,20.6c-0.5,1.8-0.9,3.6-1.3,5.6C162.7,222.4,162.7,222.9,162.6,223.4z"/>
<path id="XMLID_368_" class="st8" d="M169.9,243.5c-17.7,0-54.7,1.1-73.6-1.5c-0.9-4.8,8.5-15.5,8.5-26c0-1.4-0.1-2.9-0.2-4.6
	c-0.3-4.7-1-10.3-1.8-16.1c3.3,3.5,8.2-11.4,10.4-7c11.7,23.6,20.9,29.8,36.9,29.8c4.8,0,9.2-0.7,13.9-1.7c-0.5,1.8-0.9,3.6-1.3,5.6
	c-0.1,0.5-0.2,0.9-0.2,1.4C161.4,231.1,169.7,239.4,169.9,243.5z"/>
<path id="XMLID_366_" class="st12" d="M153.7,151.7c-0.8,5.5-3,13-9.6,14.9c-8.9,2.6-21.7-13.9-25.9-19.8c1.6-0.7,2.7-1,2.7-1.1
	c5.9,10,17.9,18.6,22.4,18.2c1.3-0.1,5-1.4,7.5-13.8C151.8,150.7,152.8,151.2,153.7,151.7z"/>
<g id="XMLID_358_">
	<g id="XMLID_360_">
		<g id="XMLID_364_">
			<polygon id="XMLID_365_" class="st13" points="157.4,235.2 157.3,241.4 267.4,242 267.6,235 			"/>
		</g>
		<g id="XMLID_361_">
			<polygon id="XMLID_363_" class="st13" points="315.1,180.3 312.7,177.8 232.5,177.2 192.2,235.4 194.3,237.1 			"/>
			<polygon id="XMLID_362_" class="st14" points="234,179.4 194.3,237.1 270.1,237.5 315.1,180.3 			"/>
		</g>
	</g>
	<ellipse id="XMLID_359_" class="st15" cx="253.2" cy="211.8" rx="8.8" ry="4.4"/>
</g>
<g id="XMLID_330_">
	<g id="XMLID_356_">
		
			<ellipse id="XMLID_357_" transform="matrix(0.1832 -0.9831 0.9831 0.1832 14.6138 265.3718)" class="st16" cx="167" cy="123.9" rx="12.4" ry="8.1"/>
	</g>
	<path id="XMLID_355_" class="st14" d="M175,104.3c-0.8,5.8-3.4,12.3-7.2,19.4c-1.3-5.8-2.2-12.9-3.4-20s-2.7-14.2-5.4-20
		c-0.6-1.3-1.2-2.5-1.9-3.7c1.6-0.1,3.2,0,4.7,0.4c2.4,0.6,4.6,1.9,6.4,3.5c3,2.7,5,6.3,6.2,10.2C175.4,97.3,175.6,100.7,175,104.3z
		"/>
	<g id="XMLID_352_">
		<path id="XMLID_354_" class="st10" d="M170.6,110.4c0,1.2-0.1,2.3-0.2,3.5c-1.6,18.9-9.6,31.9-21.7,31.9
			c-17.1,0-28.3-19.2-28.3-38.1c0-18.6,11.4-32,24.7-30.5c7.7,0.9,13.3,3.4,17.3,7.2c2.6,2.5,4.5,5.5,5.8,8.9
			c1.5,3.8,2.2,8.2,2.4,12.8l0,0C170.6,107.5,170.6,108.9,170.6,110.4z"/>
		<path id="XMLID_353_" class="st7" d="M170.6,110.4c-0.5-1.8-1.3-3.6-2.3-5.2c-10.1,5.3-22.2,7.3-33.6,5.4
			c-2.2,1.8-4.3,3.6-6.4,5.4c0-8.6,0.2-14.4,3.5-18.6c3.1-3.9,8.4-5.4,13.4-6c5.6-0.7,11.3-0.7,16.9,0.1c2.1,0.3,4.4,0.8,6.2,1.8
			c1.5,3.8,2.2,8.2,2.4,12.8l0,0C170.6,107.5,170.6,108.9,170.6,110.4z"/>
	</g>
	<path id="XMLID_351_" class="st14" d="M173,98.7c-2.4,2-5.3,3.6-8.6,5c-9.4,3.8-21.7,5.1-31.2,4.6c-4.7,10.3-6.6,14-7.8,23
		c-4.6-4.3-8.3-12.2-9.4-18.4c-1.1-6.2-1-12.6,0.7-18.7c2.7-9.6,9.5-14.7,14.3-17.2c1.2-0.6,2.2-1.1,3.1-1.4
		c6-2.3,12.9-2.1,19.1-0.2c3.4,1.1,6.2,2.8,8.6,5c4.8,4.4,7.8,10.3,9.8,14.7C172.1,96.5,172.6,97.8,173,98.7z"/>
	<path id="XMLID_350_" class="st17" d="M175,104.3c-0.4-2.1-1-4.1-1.8-6c-0.5-1.1-1-2.2-1.7-3.2c-2.2-3.4-5.3-6.2-9.1-7.4
		c-1.1-1.5-2.2-2.9-3.4-4.1c-4.3-4.4-9.3-6.9-14.7-7.7c-4.4-0.7-9.1-0.3-13.3,1.1c1.2-0.6,2.2-1.1,3.1-1.4c6-2.3,12.9-2.1,19.1-0.2
		c3.4,1.1,6.2,2.8,8.6,5c2.4,0.6,4.6,1.9,6.4,3.5c3,2.7,5,6.3,6.2,10.2C175.4,97.3,175.6,100.7,175,104.3z"/>
	<g id="XMLID_339_">
		<g id="XMLID_344_">
			<path id="XMLID_349_" class="st18" d="M138.7,115.9c3.2-1.8,6.5-2.6,11.1-0.9"/>
			<path id="XMLID_348_" class="st18" d="M160.4,115.8c2.7-2,6.7-2.2,8.8,0"/>
			<path id="XMLID_347_" class="st19" d="M157.1,126.1c0.3,1.4,0.1,4.6-0.6,6"/>
			<ellipse id="XMLID_346_" class="st20" cx="146.4" cy="125" rx="1.3" ry="2.1"/>
			<ellipse id="XMLID_345_" class="st20" cx="163.5" cy="124.1" rx="1.3" ry="2.1"/>
		</g>
		<g id="XMLID_340_">
			<path id="XMLID_343_" class="st21" d="M155.5,135c0,0-0.3,0.5-0.7,1.2c-0.8,1-2.1,2.5-3.9,3l0,0c-0.8,0.2-1.6,0.3-2.5,0.2
				c-2.7-0.5-3.4-2.9-3.5-4.8c0-0.4,0-0.7,0-1c0-0.8,0.1-1.3,0.1-1.3C149.2,134.5,155.5,135,155.5,135z"/>
			<path id="XMLID_342_" class="st5" d="M155.5,135c0,0-0.3,0.5-0.7,1.2c-2.2,0-6.6-1.1-9.9-2.7c0-0.8,0.1-1.3,0.1-1.3
				C149.2,134.5,155.5,135,155.5,135z"/>
			<path id="XMLID_341_" class="st22" d="M150.9,139.1c-0.8,0.2-1.6,0.3-2.5,0.2c-2.7-0.5-3.4-2.9-3.5-4.8c1.3,0.2,2.5,0.7,3.6,1.4
				C149.6,136.7,150.4,137.9,150.9,139.1z"/>
		</g>
	</g>
	<g id="XMLID_331_">
		<path id="XMLID_338_" class="st23" d="M125.5,112.7c0,0-0.1-8.9,3.5-17.7c4.6-11,14.1-15.8,23.2-16.1c11-0.4,17.9,7,17.9,7
			s-3.6-6.3-10.7-8.1c-4.6-1.2-11.7-1.4-17.3,0.9c-5.8,2.4-13,8.9-15.6,15.8s-3.9,17.6-3.9,17.6L125.5,112.7z"/>
		<g id="XMLID_335_">
			
				<ellipse id="XMLID_337_" transform="matrix(0.9946 -0.1034 0.1034 0.9946 -12.034 13.4696)" class="st16" cx="123.9" cy="122.8" rx="8.6" ry="13"/>
			
				<ellipse id="XMLID_336_" transform="matrix(0.9889 -0.1486 0.1486 0.9889 -17.0299 19.4572)" class="st23" cx="121.7" cy="123.7" rx="5.6" ry="9.8"/>
		</g>
		<g id="XMLID_332_">
			<ellipse id="XMLID_334_" class="st24" cx="152.3" cy="143.1" rx="4.6" ry="2.8"/>
			<path id="XMLID_333_" class="st25" d="M129.3,133.6c0,0,6.7,8.6,18.4,9.5"/>
		</g>
	</g>
</g>
<g id="XMLID_322_">
	<g id="XMLID_326_">
		<path id="XMLID_328_" class="st10" d="M157.3,218.8l-0.4,11.4c0,0-41.1,12.3-47.9,8.4c-3.3-1.9-6.4-12.4-8.7-22.6
			c-2.4-10.7-4-21.2-4-21.2l24.1-4.7c0,0,0,14.7,0.8,23.2c0.3,3.2,0.7,5.5,1.3,5.8C124.6,220.4,157.3,218.8,157.3,218.8z"/>
		<path id="XMLID_327_" class="st7" d="M121.2,213.2c-4.4,1.4-12.8,3.6-20.9,2.7c-2.4-10.7-4-21.2-4-21.2l24.1-4.7
			C120.4,190,120.4,204.7,121.2,213.2z"/>
	</g>
	<g id="XMLID_323_">
		<path id="XMLID_325_" class="st10" d="M156.1,218.9c6.1-1.3,16.5-4.4,20.7-5.5c3-0.8,11,3.3,13.1,7.2c0.9,1.7,1.8,11.3-1.4,10.3
			c-1.6-0.5-1.3-4.6-1.8-6.3c-0.4-1.4-1.7-2.7-3.7-3.8c1.3,3.3,1.3,6.1,1.1,9.7c0,0.8-0.1,1.6-0.5,2.3s-1.2,1.2-1.9,0.9
			s-1-1.2-1.1-2c-0.6-2.7-1.1-5.5-1.4-8.5c0.1,3,0,6.1-0.2,9.1c-0.1,2.3-1.3,3.6-2.7,3.2c-0.6-0.2-0.9-0.8-1.2-1.5
			c-0.4,1.5-1.5,3.1-2.9,2.5c-0.8-0.4-1.4-3.4-1.2-6.5c-2.6,1.6-5.6,2.3-9.1,2.5c-3.1,0.1-6.2-0.4-8.1-2.5
			C154.2,226.4,155.3,221.6,156.1,218.9z"/>
		<path id="XMLID_324_" class="st26" d="M175.3,233.3c0.2-2.5,0-5-0.6-7.3"/>
	</g>
</g>
<path id="XMLID_320_" class="st11" d="M117.7,166.2c-1.7-4.9-8.1-15-8.1-15s-9.8,4.1-13.2,11c-5.9,11.7-2.9,45.2-2.9,45.2
	c7.9,3.3,23.8,3.4,30.5,2.4C124,209.8,121.2,176,117.7,166.2z"/>
<path id="XMLID_317_" class="st27" d="M118.9,168.3c2.7,12.8,4.1,24.6,4.5,36.3"/>
<rect id="XMLID_316_" x="47.9" y="240" class="st14" width="280.1" height="7"/>
<g>
	<path class="st5" d="M130.2,18.7h0.3v4.1l8.4-5.4l-8.4-5.4v4.1h-0.3c-10.5,0-19.1,8.5-19.1,19.1c0,4.9,1.9,9.5,5.2,13.1l1.8-1.8
		c-2.9-3.1-4.5-7.1-4.5-11.3C113.7,26,121.1,18.7,130.2,18.7z"/>
	<path class="st5" d="M143.6,21.7l-1.8,1.8c3.1,3.1,4.8,7.2,4.8,11.6c0,9.1-7.4,16.5-16.5,16.5h-0.3v-4.1l-8.4,5.4l8.4,5.4v-4.1h0.3
		c10.5,0,19.1-8.5,19.1-19.1C149.2,30,147.2,25.3,143.6,21.7z"/>
	<path class="st5" d="M123.7,35.8l-4.2,4.3v2.4h10.1v-2.9H124l2.6-2.7c1-1.1,1.7-1.9,2.1-2.6c0.4-0.7,0.6-1.4,0.6-2.1
		c0-1.4-0.5-2.4-1.4-3.2c-0.9-0.8-2-1.2-3.3-1.2c-1.2,0-2.3,0.3-3.1,0.8c-0.8,0.5-1.5,1.3-2.2,2.4l2.6,1.5c0.8-1.3,1.7-1.9,2.6-1.9
		c0.5,0,0.9,0.2,1.2,0.5c0.3,0.3,0.5,0.7,0.5,1.2c0,0.5-0.2,1-0.5,1.5C125.2,34.2,124.6,34.9,123.7,35.8z"/>
	<polygon class="st5" points="135.7,28.1 130.6,36.6 130.6,39 136.4,39 136.4,42.5 139.5,42.5 139.5,39 141.1,39 141.1,36.3 
		139.5,36.3 139.5,34.8 136.4,34.8 136.4,36.3 134.3,36.3 139.2,28.1 	"/>
</g>
<g>
	<path class="st5" d="M246.6,67.4c-0.5,0-0.9,0.1-1.3,0.3v-0.6c0-1.5-1.2-2.7-2.7-2.7c-0.7,0-1.4,0.3-1.9,0.7v-0.2
		c0-1.5-1.2-2.7-2.7-2.7c-0.8,0-1.5,0.4-2,0.9v-7.9v-0.7c0-1.5-1-2.7-2.4-2.7c-1.5,0-2.5,1.3-2.5,2.8V72v0.4v4l-4.6-6.3
		c-0.8-1.2-2.5-1.6-3.7-0.7c-1.2,0.8-1.6,2.5-0.7,3.7l10.6,15.7V94h3.4h4.7h5.4h0.8v-5.2l1.4-10.2l0.8-7.6l0.1-0.9
		C249.3,68.6,248.1,67.4,246.6,67.4z"/>
	<path class="st5" d="M251.9,38.3H210c-1,0-1.8,0.8-1.8,1.8v31c0,1,0.8,1.8,1.8,1.8h10.8c-0.3-0.7-0.4-1.4-0.2-2.2
		c0.2-1,0.8-1.9,1.6-2.5c0.6-0.4,1.4-0.7,2.1-0.7c1.3,0,2.5,0.6,3.2,1.7l2.5,3.4V67h-19.3V40.9H251V67h-2c0.9,0.7,1.5,1.8,1.5,3.1
		v0.1l-0.3,2.8h1.7c1,0,1.8-0.8,1.8-1.8v-31C253.7,39.1,252.9,38.3,251.9,38.3z"/>
	<rect x="214.7" y="45.4" class="st5" width="11.2" height="8.6"/>
	<rect x="240.1" y="49.7" class="st5" width="7.4" height="9.7"/>
	<rect x="214.7" y="56.2" class="st5" width="11.2" height="0.9"/>
	<rect x="214.7" y="59" class="st5" width="11.2" height="0.9"/>
	<rect x="229.5" y="48.3" class="st5" width="8.1" height="0.9"/>
	<rect x="229.5" y="45.4" class="st5" width="18.1" height="0.9"/>
	<rect x="214.7" y="61.9" class="st5" width="11.2" height="0.9"/>
</g>
<g>
	<path class="st5" d="M85.5,96.4L84.9,97l-3.5-3.5c0.9-1.3,1.5-2.9,1.5-4.7c0-4.5-3.7-8.2-8.2-8.2s-8.2,3.7-8.2,8.2s3.7,8.2,8.2,8.2
		c1.7,0,3.2-0.5,4.5-1.4l3.5,3.5l-0.4,0.4l6.3,6.3c0.9,0.9,2.3,0.9,3.2,0s0.9-2.3,0-3.2L85.5,96.4z M74.7,95.4
		c-3.6,0-6.6-2.9-6.6-6.6c0-3.6,2.9-6.6,6.6-6.6c3.6,0,6.6,2.9,6.6,6.6C81.2,92.5,78.3,95.4,74.7,95.4z"/>
	<path class="st5" d="M78.3,103.8c1.2-0.9,2.3-2.1,3.2-3.4l-0.9-0.9c-2,2.9-4.5,4.8-7.3,5V98c-0.4-0.1-0.8-0.1-1.2-0.3v6.7
		c-4-0.3-7.5-4-9.5-9.3h5.3c-0.4-0.4-0.7-0.8-1-1.2h-4.8c-0.9-2.8-1.5-6-1.5-9.4h5.8c0.2-0.4,0.5-0.8,0.8-1.2h-6.5
		c0.1-3.4,0.6-6.6,1.5-9.4h9.9v5.9c0.4-0.1,0.8-0.2,1.2-0.3V74h9.9c0.9,2.8,1.5,6,1.5,9.4h-2.6c0.3,0.4,0.5,0.8,0.8,1.2h1.9
		c-0.1,3.4-0.6,6.5-1.5,9.3l1.3,1.3h0.7l0.2-0.2l0.2,0.2H90c-0.6,0.9-1.2,1.7-1.9,2.4l0.9,0.9c3.4-3.9,5.5-8.9,5.5-14.5
		c0-12-9.8-21.8-21.8-21.8c-7.9,0-14.9,4.3-18.7,10.6c-2,3.3-3.1,7.1-3.1,11.2c0,12,9.8,21.8,21.8,21.8c4.1,0,7.9-1.1,11.1-3.1
		l-0.9-0.9C81.5,102.6,79.9,103.3,78.3,103.8z M90.7,93.9h-6.2c0.9-2.8,1.4-6,1.5-9.4h7.3C93.2,88,92.3,91.1,90.7,93.9z M93.3,83.3
		H86c0-3.3-0.6-6.5-1.5-9.3h6.2C92.3,76.8,93.2,79.9,93.3,83.3z M90,72.7h-5.8c-1.4-3.7-3.4-6.8-5.9-8.6
		C83.1,65.5,87.3,68.6,90,72.7z M73.3,63.4c4,0.3,7.5,4,9.5,9.3h-9.5V63.4z M72.1,72.7h-9.5c2.1-5.4,5.5-9,9.5-9.3V72.7z M67.2,64.1
		c-2.4,1.8-4.5,4.9-5.9,8.6h-5.8C58.2,68.6,62.3,65.5,67.2,64.1z M54.7,74h6.2c-0.9,2.8-1.4,6-1.5,9.4h-7.3
		C52.3,79.9,53.2,76.8,54.7,74z M52.2,84.6h7.3c0.1,3.4,0.6,6.5,1.5,9.4h-6.2C53.2,91.1,52.3,88,52.2,84.6z M55.5,95.2h5.8
		c1.4,3.7,3.4,6.8,5.9,8.6C62.3,102.4,58.2,99.3,55.5,95.2z"/>
</g>
</svg>
