<?xml version="1.0" encoding="utf-8"?>
<!-- Generator: Adobe Illustrator 25.2.0, SVG Export Plug-In . SVG Version: 6.00 Build 0)  -->
<svg version="1.1" id="Layer_1" xmlns="http://www.w3.org/2000/svg" xmlns:xlink="http://www.w3.org/1999/xlink" x="0px" y="0px"
	 viewBox="0 0 370 261" style="enable-background:new 0 0 370 261;" xml:space="preserve">
<style type="text/css">
	.st0{fill:#DFF3FC;}
	.st1{fill:#A2C7EB;}
	.st2{fill:none;stroke:#A2C7EB;stroke-width:0.7039;stroke-miterlimit:10;}
	.st3{fill:#242A36;}
	.st4{fill:#0097D8;}
	.st5{fill:#FFFFFF;}
	.st6{fill:none;stroke:#6F8BBF;stroke-width:0.7039;stroke-linecap:round;stroke-miterlimit:10;}
	.st7{fill:#E06A58;}
	.st8{fill:#CE8505;}
	.st9{fill:#0A2240;}
	.st10{fill:#F9A07B;}
	.st11{fill:#F9AA1E;}
	.st12{fill:#FCBA4F;}
	.st13{fill:#325F73;}
	.st14{fill:#0B2D50;}
	.st15{fill:#3C738C;}
	.st16{fill:#56C4F9;}
	.st17{fill:#225570;}
	.st18{fill:none;stroke:#0B2D50;stroke-width:1.4079;stroke-linecap:round;stroke-miterlimit:10;}
	.st19{fill:none;stroke:#CC454E;stroke-width:1.4079;stroke-linecap:round;stroke-miterlimit:10;}
	.st20{fill:#262D40;}
	.st21{fill:#CC454E;}
	.st22{fill:#E8729B;}
	.st23{fill:#3D86E0;}
	.st24{fill:#3A92C9;}
	.st25{fill:none;stroke:#3A92C9;stroke-width:1.4079;stroke-linecap:round;stroke-miterlimit:10;}
	.st26{fill:none;stroke:#CC454E;stroke-width:0.7039;stroke-linecap:round;stroke-miterlimit:10;}
	.st27{fill:none;stroke:#CE8505;stroke-miterlimit:10;}
</style>
<g id="XMLID_329_">
	<path id="XMLID_110_" class="st0" d="M311.5,244.5c33.4-25.4,48.3-95.9-6-130.5c-35.9-22.9-58.3-9.8-98.7-25
		c-49.4-18.5-56.7-74.3-116.7-46.8C58.3,56.8,36.3,97.8,32.4,144.4c-3.8,45.6,12.4,76.9,45.4,98.3
		C155.4,246.1,233.1,245.5,311.5,244.5z"/>
	<path id="XMLID_109_" class="st0" d="M174.2,44.1c-5,20.3,13.7,40.3,33.5,48.7c19.8,8.3,42.4,7.3,63.6,3.4
		c9.1-1.7,18.5-4.1,25.6-9.9S308,70.2,304.1,62c-3.4-7.2-11.8-10.9-19.7-12.8c-8-1.9-16.4-2.7-23.5-6.7c-6.7-3.8-11.5-10-17.3-15
		c-10.8-9.1-26-13.7-40-10.8C189.4,19.7,178.5,26.8,174.2,44.1z"/>
</g>
<g id="XMLID_27_">
	<path id="XMLID_155_" class="st1" d="M325.4,137.3V122h-5.8c-0.7-2.7-1.8-5.2-3.1-7.5l4.1-4.1l-10.8-10.8l-4.1,4.1
		c-2.3-1.4-4.9-2.4-7.5-3.1v-5.8h-15.3v5.8c-2.7,0.7-5.2,1.8-7.5,3.1l-4.1-4.1l-10.8,10.8l4.1,4.1c-1.4,2.3-2.4,4.9-3.1,7.5h-5.8
		v15.3h5.8c0.7,2.7,1.8,5.2,3.1,7.5l-4.1,4.1l10.8,10.8l4.1-4.1c2.3,1.4,4.9,2.4,7.5,3.1v5.8h15.3v-5.8c2.7-0.7,5.2-1.8,7.5-3.1
		l4.1,4.1l10.8-10.8l-4.1-4.1c1.4-2.3,2.4-4.9,3.1-7.5H325.4z M290.4,142.9c-7.3,0-13.3-6-13.3-13.3c0-7.3,6-13.3,13.3-13.3
		s13.3,6,13.3,13.3C303.7,137,297.8,142.9,290.4,142.9z"/>
	<path id="XMLID_66_" class="st2" d="M279.1,175.7l-2.9-7.6l-2.9,1.1c-0.9-1.2-1.9-2.2-3-3.1l1.3-2.8l-7.4-3.3l-1.3,2.8
		c-1.4-0.2-2.9-0.3-4.3-0.1l-1.1-2.9l-7.6,2.9l1.1,2.9c-1.2,0.9-2.2,1.9-3.1,3l-2.8-1.3l-3.3,7.4l2.8,1.3c-0.2,1.4-0.3,2.9-0.1,4.3
		l-2.9,1.1l2.9,7.6l2.9-1.1c0.9,1.2,1.9,2.2,3,3.1l-1.3,2.8l7.4,3.3l1.3-2.8c1.4,0.2,2.9,0.3,4.3,0.1l1.1,2.9l7.6-2.9l-1.1-2.9
		c1.2-0.9,2.2-1.9,3.1-3l2.8,1.3l3.3-7.4l-2.8-1.3c0.2-1.4,0.3-2.9,0.1-4.3L279.1,175.7z M262.8,185.2c-3.6,1.4-7.7-0.4-9.1-4.1
		c-1.4-3.6,0.4-7.7,4.1-9.1c3.6-1.4,7.7,0.4,9.1,4.1C268.3,179.7,266.4,183.8,262.8,185.2z"/>
	<path id="XMLID_69_" class="st2" d="M254.2,149.1l-2-5.1l-1.9,0.7c-0.6-0.8-1.3-1.5-2-2.1l0.8-1.9l-5-2.2l-0.9,1.9
		c-1-0.2-1.9-0.2-2.9-0.1l-0.7-1.9l-5.1,2l0.7,1.9c-0.8,0.6-1.5,1.3-2.1,2l-1.9-0.8l-2.2,5l1.9,0.9c-0.2,1-0.2,1.9-0.1,2.9l-1.9,0.7
		l2,5.1l1.9-0.7c0.6,0.8,1.3,1.5,2,2.1l-0.8,1.9l5,2.2l0.9-1.9c1,0.2,1.9,0.2,2.9,0.1l0.7,1.9l5.1-2l-0.7-1.9c0.8-0.6,1.5-1.3,2.1-2
		l1.9,0.8l2.2-5l-1.9-0.9c0.2-1,0.2-1.9,0.1-2.9L254.2,149.1z M243.2,155.4c-2.5,0.9-5.2-0.3-6.2-2.7c-0.9-2.5,0.3-5.2,2.7-6.2
		c2.5-0.9,5.2,0.3,6.2,2.7C246.8,151.7,245.6,154.5,243.2,155.4z"/>
</g>
<path id="XMLID_30_" class="st3" d="M257.5,55.9c0,10-4.7,18.8-11.9,24.6c-5.3,4.2-12.1,6.7-19.4,6.7c-7.3,0-14.1-2.5-19.4-6.7
	c-7.3-5.7-11.9-14.6-11.9-24.6c0-17.3,14-31.3,31.3-31.3C243.5,24.6,257.5,38.6,257.5,55.9z"/>
<g id="XMLID_34_">
	<g id="XMLID_35_">
		<path id="XMLID_36_" class="st4" d="M193.3,118.8v-12c0-3.3,2.6-5.9,5.9-5.9h37.7c3.3,0,5.9,2.6,5.9,5.9v12c0,3.3-2.6,5.9-5.9,5.9
			h-37.7C196,124.7,193.3,122.1,193.3,118.8z"/>
		<polyline id="XMLID_37_" class="st4" points="209.2,118.2 191,136 220.6,121 		"/>
	</g>
	<g id="XMLID_38_">
		<path id="XMLID_39_" class="st5" d="M197.9,106.5L197.9,106.5c0-0.5,0.4-0.9,0.9-0.9h18.6c0.5,0,0.9,0.4,0.9,0.9v0.1
			c0,0.5-0.4,0.9-0.9,0.9h-18.6C198.3,107.4,197.9,107,197.9,106.5z"/>
		<path id="XMLID_40_" class="st5" d="M219.1,106.5L219.1,106.5c0-0.5,0.4-0.9,0.9-0.9h16.3c0.5,0,0.9,0.4,0.9,0.9v0.1
			c0,0.5-0.4,0.9-0.9,0.9H220C219.5,107.4,219.1,107,219.1,106.5z"/>
		<path id="XMLID_41_" class="st5" d="M212,110.6L212,110.6c0-0.5,0.4-0.9,0.9-0.9h23.4c0.5,0,0.9,0.4,0.9,0.9v0.1
			c0,0.5-0.4,0.9-0.9,0.9h-23.4C212.4,111.4,212,111,212,110.6z"/>
		<path id="XMLID_42_" class="st5" d="M197.9,110.6L197.9,110.6c0-0.5,0.4-0.9,0.9-0.9h10.4c0.5,0,0.9,0.4,0.9,0.9v0.1
			c0,0.5-0.4,0.9-0.9,0.9h-10.4C198.3,111.4,197.9,111,197.9,110.6z"/>
		<path id="XMLID_43_" class="st5" d="M215.3,114.6L215.3,114.6c0-0.5,0.4-0.9,0.9-0.9h20.1c0.5,0,0.9,0.4,0.9,0.9v0.1
			c0,0.5-0.4,0.9-0.9,0.9h-20.1C215.7,115.4,215.3,115,215.3,114.6z"/>
		<path id="XMLID_44_" class="st5" d="M197.9,114.6L197.9,114.6c0-0.5,0.4-0.9,0.9-0.9h13.9c0.5,0,0.9,0.4,0.9,0.9v0.1
			c0,0.5-0.4,0.9-0.9,0.9h-13.9C198.3,115.4,197.9,115,197.9,114.6z"/>
		<path id="XMLID_45_" class="st5" d="M197.9,118.6L197.9,118.6c0-0.5,0.4-0.9,0.9-0.9h5.2c0.5,0,0.9,0.4,0.9,0.9v0.1
			c0,0.5-0.4,0.9-0.9,0.9h-5.2C198.3,119.4,197.9,119,197.9,118.6z"/>
		<path id="XMLID_46_" class="st5" d="M206.6,118.6L206.6,118.6c0-0.5,0.4-0.9,0.9-0.9h28.8c0.5,0,0.9,0.4,0.9,0.9v0.1
			c0,0.5-0.4,0.9-0.9,0.9h-28.8C207,119.4,206.6,119,206.6,118.6z"/>
	</g>
</g>
<ellipse id="XMLID_28_" class="st3" cx="71.8" cy="86.4" rx="28.9" ry="28.9"/>
<path id="XMLID_26_" class="st3" d="M91.9,102c1-0.5,17.6,0.3,17.6,0.3l-12-11L91.9,102z"/>
<g id="XMLID_74_">
	<g>
		<g id="XMLID_142_">
			<ellipse id="XMLID_156_" class="st3" cx="128.3" cy="38.5" rx="27.9" ry="27.9"/>
		</g>
	</g>
</g>
<g id="XMLID_231_">
	<g id="XMLID_5_">
		<g id="XMLID_6_">
			<path id="XMLID_108_" class="st1" d="M195.5,198.7c-1.4-20.9,7.8-42.6,23.2-55C219.2,164.7,210.2,186,195.5,198.7z"/>
			<path id="XMLID_107_" class="st6" d="M216.2,149.3c-6.5,12.1-12.1,24.8-16.8,37.9c-5.7,15.9-10.2,32.8-19.9,46.1"/>
		</g>
		<g id="XMLID_7_">
			<path id="XMLID_106_" class="st1" d="M190.6,211.9c7.8-17.5,23.3-30.7,40.4-34.4C223.8,196.2,207.4,210.5,190.6,211.9z"/>
			<path id="XMLID_105_" class="st6" d="M226.9,181.3c-11.7,10.3-23.6,20.3-35.6,30"/>
		</g>
		<g id="XMLID_8_">
			<path id="XMLID_104_" class="st1" d="M186,227.1c10.4-15.6,29.7-23.7,45.6-19.3C220,223.2,200.7,231.4,186,227.1z"/>
			<path id="XMLID_103_" class="st6" d="M227.9,208.9c-13.7,8.6-28.4,14.9-43.7,18.7"/>
		</g>
		<g id="XMLID_9_">
			<path id="XMLID_102_" class="st1" d="M191.7,206.6c3.3-17.6-1.7-37.1-12.8-50.1C174.3,173.7,178.7,194,191.7,206.6z"/>
			<path id="XMLID_101_" class="st6" d="M180,161c2.2,16.3,6.1,31.6,12.2,46.6"/>
		</g>
		<g id="XMLID_10_">
			<path id="XMLID_100_" class="st1" d="M185.9,221.5c-1.4-18-10.7-35-24.2-44.4c0.8,9.6,3.3,18.8,7.4,27.2
				C173.7,213.9,180.6,220,185.9,221.5z"/>
			<path id="XMLID_99_" class="st6" d="M163.8,180.8c5.3,15.1,13,29,22.5,41.1"/>
		</g>
	</g>
	<g id="XMLID_11_">
		<g id="XMLID_12_">
			<path id="XMLID_98_" class="st1" d="M290.4,217.2c7.4-19.2,24.4-34.8,43.1-39.5C325.3,196.6,308.6,211.9,290.4,217.2z"/>
			<path id="XMLID_97_" class="st6" d="M329,181.6c-10.7,8.1-20.9,17.1-30.4,26.9c-11.5,11.8-22.4,25-36.5,32.9"/>
		</g>
		<g id="XMLID_13_">
			<path id="XMLID_96_" class="st1" d="M280.7,226.9c14.1-12.4,33.2-17.8,49.8-14.2C316.4,226.5,296.1,232.5,280.7,226.9z"/>
			<path id="XMLID_95_" class="st6" d="M325.3,214.5c-14.5,4.4-29.1,8.4-43.8,12.1"/>
		</g>
		<g id="XMLID_14_">
			<path id="XMLID_94_" class="st1" d="M270.4,238.6c15.6-9.6,36-9,48.2,1.5C302,249,281.6,248.4,270.4,238.6z"/>
			<path id="XMLID_93_" class="st6" d="M314.8,239.5c-15.6,2-31.2,1.6-46.2-1.2"/>
		</g>
		<g id="XMLID_15_">
			<path id="XMLID_92_" class="st1" d="M283.8,222.6c10.1-14.3,13.7-33.8,9.2-49.8C281.9,186.3,277.5,206.1,283.8,222.6z"/>
			<path id="XMLID_91_" class="st6" d="M292.2,177.2c-4.8,15.4-7.6,30.7-8.3,46.5"/>
		</g>
		<g id="XMLID_16_">
			<path id="XMLID_90_" class="st1" d="M272.6,233.6c6.1-16.7,4.9-35.5-3.2-49.4c-3.2,8.8-4.8,18.1-4.6,27.2
				C264.9,221.9,268.4,230.1,272.6,233.6z"/>
			<path id="XMLID_89_" class="st6" d="M269.7,188.3c-1.5,15.6-0.4,31.1,3.1,45.8"/>
		</g>
	</g>
	<g id="XMLID_112_">
		<path id="XMLID_88_" class="st1" d="M81.2,183.6c-7.5-23-28.5-41.6-53-46.9C38.5,156.6,57.1,172.5,81.2,183.6z"/>
		<path id="XMLID_87_" class="st1" d="M82.4,187.2c-16.5-9.3-37.1-11.4-55.1-5.5C44,190,63.7,192.3,82.4,187.2z"/>
		<path id="XMLID_86_" class="st1" d="M87,192.2c-17.8-2.5-36.5,1.9-51,12C52.4,210.1,72.1,206.2,87,192.2z"/>
		<path id="XMLID_85_" class="st1" d="M92.5,203.1c-17.6-0.1-35,8.3-45.4,21.9c7.9,1.6,16.2,0.6,23.4-2.6
			C77.8,219.1,83.8,213.5,92.5,203.1z"/>
		<path id="XMLID_84_" class="st1" d="M105,221.3c-17.4-3-35.9,2.4-48.5,14.1c7.5,2.8,15.9,3.3,23.5,1.3
			C87.7,234.7,94.6,230.2,105,221.3z"/>
		<path id="XMLID_83_" class="st1" d="M86.2,184.7c-11.5-15.5-14.6-36.4-8.1-54.1c5,8.4,9.3,17.4,11.3,26.9
			C91.4,166.9,91,177,86.2,184.7z"/>
		<path id="XMLID_82_" class="st1" d="M93.2,199.6c-2.7-16.5,2.9-33.9,14.8-45.8C109.4,170.8,104.2,188.2,93.2,199.6z"/>
		<g id="XMLID_113_">
			<path id="XMLID_81_" class="st6" d="M33.5,140.8c35,22.4,62.3,55.7,76.8,93.6"/>
			<path id="XMLID_80_" class="st6" d="M79.2,138.7c4.3,17.3,6.8,34.9,7.7,52.6"/>
			<path id="XMLID_79_" class="st6" d="M105.4,160.5c-1.4,13.9-5.7,27.6-12.6,39.8"/>
			<path id="XMLID_78_" class="st6" d="M34.7,182.1c16,3,32.3,4.7,48.6,4.9"/>
			<path id="XMLID_77_" class="st6" d="M44.4,202.8c14.8-1.1,29.3-4.7,42.8-10.5"/>
			<path id="XMLID_76_" class="st6" d="M53.2,222.5c13.6-6.8,27.3-13.6,40.9-20.4"/>
			<path id="XMLID_75_" class="st6" d="M62.1,234.5c17.8-3.4,23.1-7.5,42.9-13.2"/>
		</g>
	</g>
</g>
<path id="XMLID_65_" class="st7" d="M174.9,201.9c0,0,1.5,14.1,3.3,15.3c3.1,2,38.8,6.7,38.8,6.7l-1.2,9.3c0,0-48.9,4.4-51,1.9
	c-3.6-4.2-9.9-24.7-9.9-24.7L174.9,201.9z"/>
<path id="XMLID_64_" class="st8" d="M151.3,165.5l3.9-9.5c0,0,10.7,5,14.2,11.2c3.8,6.6,8.4,42,8.4,42s-18.9,4.4-22.4,2.5
	C152,209.9,151.3,165.5,151.3,165.5z"/>
<path id="XMLID_63_" class="st9" d="M121.2,121.5c-2.8-1-5.7-1.9-8.7-1.7s-6,1.8-7,4.4c-0.7,1.8-0.4,4-1.5,5.7
	c-1.1,1.6-3.2,2.3-5.3,2.4c-2,0.1-4.1-0.1-6.1,0.1c-6.2,0.8-10.6,7.6-8.6,13.1c0.8,2.2,2.5,4.3,2.1,6.6c-0.4,2.4-3,4.1-4,6.3
	c-1.4,3,0.3,6.7,3,8.8c2.8,2.1,6.4,2.8,9.9,3.4c4.8,0.7,9.8,1.1,14.5,0c4.8-1,9.3-3.5,11.7-7.4c1.1-1.7,1.8-3.7,3-5.3
	c2.6-3.4,7.3-4.7,10.9-7c4-2.6,6.9-7.7,4.6-11.7c-2.3-3.8-8.2-4.7-10.5-8.4c-1-1.6-1.2-3.4-1.8-5.1
	C126.9,123.9,125.3,123,121.2,121.5z"/>
<g id="XMLID_48_">
	<path id="XMLID_62_" class="st10" d="M137.4,168.4c0.7,0.8,1.5,1.7,2.7,1.8s2.2-0.8,3-1.6c4-4.2,6.6-9.4,7.7-14.8
		c-1-0.6-1.9-1.1-2.8-1.6c-0.8-0.5-1.4-1.1-1.8-1.9c-0.2-0.6-0.3-1.2-0.3-1.8c0.6-5.3,1.1-8.2,2.9-13.6c-8.8-2-17.2-4.4-21.9-8.4
		c-0.6,2.5-1.3,7.3-2.7,12.1c-1.6,5.1-4,10.1-8.2,12.2C124.1,155.6,131.4,161.6,137.4,168.4z"/>
	<path id="XMLID_61_" class="st7" d="M145.9,148.4c-0.1,0.6,0,1.2,0.3,1.8c-5.2,6.3-16.9-1.9-22-11.7c1.5-4.8,2.2-9.6,2.7-12.1
		c4.8,4,13.1,6.4,21.9,8.4C146.9,140.2,146.4,143.1,145.9,148.4z"/>
</g>
<path id="XMLID_60_" class="st11" d="M160.4,225c-1.2,7.6,7.1,15.9,7.3,20c-17.5,0-54.2,1.1-72.9-1.5c-0.9-4.7,8.4-15.3,8.4-25.8
	c0-1.4-0.1-2.9-0.2-4.5c-0.3-4.7-1-10.2-1.8-15.9c-2.1-15.3-4.9-31.7-2.8-35c4-6.6,13.4-11.1,18-13c1.6-0.7,2.6-1,2.7-1.1
	c5.8,10,17.7,18.4,22.2,18.1c1.2-0.1,4.9-1.4,7.4-13.7c1,0.5,1.9,1,2.8,1.5c4.6,2.4,9,4.4,10.2,7.5c3.3,8.2,6.6,28.8,5.8,36.1
	c-0.7,7.4-3.7,13-5.8,20.5c-0.5,1.7-0.9,3.6-1.3,5.6C160.6,224.1,160.5,224.6,160.4,225z"/>
<path id="XMLID_59_" class="st8" d="M167.7,245c-17.5,0-54.2,1.1-72.9-1.5c-0.9-4.7,8.4-15.3,8.4-25.8c0-1.4-0.1-2.9-0.2-4.5
	c-0.3-4.7-1-10.2-1.8-15.9c3.3,3.5,8.2-11.3,10.3-7c11.6,23.4,20.7,29.5,36.6,29.5c4.7,0,9.1-0.7,13.8-1.7c-0.5,1.7-0.9,3.6-1.3,5.6
	c-0.1,0.5-0.2,0.9-0.2,1.4C159.3,232.7,167.5,240.9,167.7,245z"/>
<path id="XMLID_58_" class="st12" d="M151.6,154c-0.8,5.5-3,12.8-9.5,14.8c-8.8,2.6-21.5-13.8-25.7-19.6c1.6-0.7,2.6-1,2.7-1.1
	c5.8,10,17.7,18.4,22.2,18.1c1.2-0.1,4.9-1.4,7.4-13.7C149.8,153,150.7,153.5,151.6,154z"/>
<g id="XMLID_50_">
	<g id="XMLID_51_">
		<g id="XMLID_52_">
			<polygon id="XMLID_57_" class="st13" points="155.2,236.8 155.2,242.9 264.3,243.5 264.5,236.6 			"/>
		</g>
		<g id="XMLID_53_">
			<polygon id="XMLID_56_" class="st13" points="311.6,182.3 309.2,179.8 229.7,179.3 189.8,237 191.9,238.7 			"/>
			<polygon id="XMLID_55_" class="st14" points="231.2,181.5 191.9,238.7 267,239 311.6,182.3 			"/>
		</g>
	</g>
	<ellipse id="XMLID_54_" class="st15" cx="250.2" cy="213.6" rx="8.7" ry="4.4"/>
</g>
<g id="XMLID_114_">
	<g id="XMLID_115_">
		
			<ellipse id="XMLID_116_" transform="matrix(0.1832 -0.9831 0.9831 0.1832 10.3055 265.3458)" class="st16" cx="164.8" cy="126.5" rx="12.2" ry="8.1"/>
	</g>
	<path id="XMLID_117_" class="st14" d="M172.7,107.1c-0.8,5.8-3.4,12.2-7.2,19.2c-1.3-5.8-2.2-12.8-3.3-19.8
		c-1.2-7-2.7-14.1-5.3-19.9c-0.6-1.3-1.2-2.5-1.9-3.6c1.6-0.1,3.1,0,4.6,0.4c2.3,0.6,4.5,1.8,6.3,3.5c3,2.7,5,6.3,6.2,10.1
		C173.1,100.1,173.3,103.5,172.7,107.1z"/>
	<g id="XMLID_118_">
		<path id="XMLID_119_" class="st10" d="M168.3,113.1c0,1.1-0.1,2.3-0.2,3.5c-1.6,18.7-9.5,31.6-21.5,31.6c-17,0-28-19-28-37.7
			c0-18.4,11.3-31.7,24.5-30.2c7.6,0.9,13.2,3.4,17.1,7.1c2.6,2.5,4.5,5.4,5.8,8.8c1.5,3.8,2.2,8.1,2.3,12.7l0,0
			C168.4,110.2,168.4,111.6,168.3,113.1z"/>
		<path id="XMLID_120_" class="st7" d="M168.3,113.1c-0.5-1.8-1.3-3.6-2.3-5.2c-10,5.2-22,7.3-33.3,5.3c-2.2,1.8-4.3,3.6-6.4,5.3
			c0-8.5,0.2-14.3,3.5-18.4c3.1-3.9,8.3-5.3,13.2-6c5.5-0.7,11.2-0.7,16.7,0.1c2.1,0.3,4.3,0.8,6.2,1.8c1.5,3.8,2.2,8.1,2.3,12.7
			l0,0C168.4,110.2,168.4,111.6,168.3,113.1z"/>
	</g>
	<path id="XMLID_121_" class="st14" d="M170.8,101.5c-2.3,2-5.3,3.6-8.5,4.9c-9.3,3.8-21.5,5-30.9,4.6c-4.6,10.2-6.5,13.9-7.7,22.8
		c-4.5-4.3-8.2-12.1-9.3-18.2c-1.1-6.1-1-12.5,0.7-18.5c2.7-9.5,9.4-14.5,14.1-17c1.2-0.6,2.2-1.1,3-1.4c6-2.3,12.7-2.1,18.9-0.2
		c3.4,1,6.2,2.8,8.5,5c4.8,4.3,7.8,10.2,9.7,14.6C169.9,99.3,170.4,100.6,170.8,101.5z"/>
	<path id="XMLID_122_" class="st17" d="M172.7,107.1c-0.4-2-1-4-1.8-5.9c-0.5-1.1-1-2.1-1.7-3.1c-2.1-3.4-5.2-6.1-9-7.3
		c-1.1-1.5-2.2-2.9-3.4-4c-4.3-4.3-9.3-6.8-14.6-7.7c-4.4-0.7-9-0.3-13.2,1.1c1.2-0.6,2.2-1.1,3-1.4c6-2.3,12.7-2.1,18.9-0.2
		c3.4,1,6.2,2.8,8.5,5c2.3,0.6,4.5,1.8,6.3,3.5c3,2.7,5,6.3,6.2,10.1C173.1,100.1,173.3,103.5,172.7,107.1z"/>
	<g id="XMLID_123_">
		<g id="XMLID_124_">
			<path id="XMLID_125_" class="st18" d="M136.7,118.6c3.1-1.8,6.4-2.6,11-0.9"/>
			<path id="XMLID_126_" class="st18" d="M158.2,118.4c2.7-2,6.7-2.2,8.7,0"/>
			<path id="XMLID_127_" class="st19" d="M155,128.7c0.3,1.4,0.1,4.6-0.5,6"/>
			<ellipse id="XMLID_128_" class="st20" cx="144.4" cy="127.6" rx="1.3" ry="2"/>
			<ellipse id="XMLID_129_" class="st20" cx="161.3" cy="126.6" rx="1.3" ry="2"/>
		</g>
		<g id="XMLID_130_">
			<path id="XMLID_131_" class="st21" d="M153.4,137.4c0,0-0.3,0.5-0.7,1.2c-0.8,1-2.1,2.4-3.8,3l0,0c-0.7,0.2-1.6,0.3-2.5,0.2
				c-2.6-0.5-3.3-2.9-3.5-4.8c0-0.4,0-0.7,0-1c0-0.8,0.1-1.3,0.1-1.3C147.2,137,153.4,137.4,153.4,137.4z"/>
			<path id="XMLID_132_" class="st5" d="M153.4,137.4c0,0-0.3,0.5-0.7,1.2c-2.2,0-6.6-1.1-9.8-2.7c0-0.8,0.1-1.3,0.1-1.3
				C147.2,137,153.4,137.4,153.4,137.4z"/>
			<path id="XMLID_133_" class="st22" d="M148.8,141.6c-0.7,0.2-1.6,0.3-2.5,0.2c-2.6-0.5-3.3-2.9-3.5-4.8c1.3,0.2,2.5,0.6,3.5,1.4
				C147.5,139.2,148.3,140.3,148.8,141.6z"/>
		</g>
	</g>
	<g id="XMLID_134_">
		<path id="XMLID_135_" class="st23" d="M123.7,115.3c0,0-0.1-8.8,3.5-17.5c4.6-10.9,13.9-15.6,23-15.9c10.9-0.4,17.8,6.9,17.8,6.9
			s-3.6-6.3-10.6-8.1c-4.6-1.2-11.6-1.4-17.1,0.9c-5.7,2.3-12.9,8.8-15.5,15.6c-2.6,6.8-3.8,17.5-3.8,17.5L123.7,115.3z"/>
		<g id="XMLID_136_">
			
				<ellipse id="XMLID_137_" transform="matrix(0.9946 -0.1034 0.1034 0.9946 -12.3124 13.2977)" class="st16" cx="122.1" cy="125.4" rx="8.5" ry="12.9"/>
			
				<ellipse id="XMLID_138_" transform="matrix(0.9889 -0.1486 0.1486 0.9889 -17.4365 19.2193)" class="st23" cx="119.9" cy="126.3" rx="5.5" ry="9.7"/>
		</g>
		<g id="XMLID_139_">
			<ellipse id="XMLID_140_" class="st24" cx="150.2" cy="145.5" rx="4.5" ry="2.8"/>
			<path id="XMLID_141_" class="st25" d="M127.4,136.1c0,0,6.7,8.6,18.2,9.4"/>
		</g>
	</g>
</g>
<g id="XMLID_144_">
	<g id="XMLID_145_">
		<path id="XMLID_146_" class="st10" d="M155.2,220.5l-0.4,11.3c0,0-40.7,12.2-47.4,8.3c-3.3-1.9-6.3-12.3-8.6-22.4
			c-2.4-10.6-3.9-21-3.9-21l23.9-4.7c0,0,0,14.6,0.8,23c0.3,3.1,0.7,5.4,1.3,5.8C122.8,222.1,155.2,220.5,155.2,220.5z"/>
		<path id="XMLID_147_" class="st7" d="M119.4,214.9c-4.3,1.4-12.7,3.6-20.8,2.7c-2.4-10.6-3.9-21-3.9-21l23.9-4.7
			C118.6,192,118.6,206.5,119.4,214.9z"/>
	</g>
	<g id="XMLID_148_">
		<path id="XMLID_149_" class="st10" d="M154,220.6c6.1-1.3,16.3-4.4,20.6-5.5c3-0.8,10.9,3.3,13,7.1c0.9,1.7,1.8,11.2-1.4,10.2
			c-1.6-0.5-1.3-4.6-1.8-6.2c-0.4-1.4-1.7-2.7-3.6-3.8c1.3,3.2,1.3,6.1,1.1,9.6c0,0.8-0.1,1.6-0.5,2.3s-1.2,1.1-1.9,0.9
			c-0.7-0.3-1-1.2-1.1-2c-0.6-2.7-1.1-5.4-1.3-8.5c0.1,3,0,6-0.2,9c-0.1,2.3-1.3,3.6-2.7,3.2c-0.6-0.2-0.9-0.8-1.1-1.5
			c-0.4,1.5-1.5,3.1-2.8,2.5c-0.8-0.4-1.3-3.4-1.2-6.5c-2.6,1.6-5.6,2.3-9,2.5c-3.1,0.1-6.2-0.4-8-2.5
			C152.1,228.1,153.2,223.3,154,220.6z"/>
		<path id="XMLID_150_" class="st26" d="M173,234.9c0.2-2.4,0-4.9-0.6-7.3"/>
	</g>
</g>
<path id="XMLID_151_" class="st11" d="M115.9,168.4c-1.7-4.9-8.1-14.9-8.1-14.9s-9.7,4-13.1,10.9c-5.8,11.6-2.9,44.8-2.9,44.8
	c7.8,3.3,23.6,3.3,30.3,2.4C122.1,211.6,119.4,178.1,115.9,168.4z"/>
<path id="XMLID_152_" class="st27" d="M117.2,170.4c2.6,12.6,4.1,24.4,4.5,36"/>
<rect id="XMLID_3_" x="46.8" y="241.5" class="st14" width="277.5" height="7"/>
<g>
	<path class="st5" d="M70.3,87.5c0.3-0.6,0.6-1.2,1.1-1.7c0.3-0.3,0.7-0.6,1.2-0.9v-2.6c-2.3,0.8-4.2,2.8-4.8,5.1L70.3,87.5z"/>
	<path class="st5" d="M72.7,76c-2.8,0.5-5.4,1.8-7.4,3.8c-2.1,2.1-3.5,4.8-3.9,7.8h2.4c0.4-2.4,1.5-4.5,3.2-6.2
		c1.6-1.6,3.5-2.6,5.7-3.1L72.7,76z"/>
	<path class="st5" d="M62.8,77.3c2.7-2.7,6-4.3,9.8-4.8V70c-4.3,0.5-8.4,2.5-11.5,5.6c-3.2,3.2-5.2,7.4-5.6,11.9h2.4
		C58.3,83.6,60,80,62.8,77.3z"/>
	<path class="st5" d="M69.8,94.4c-0.7-1.9-2.7-2.3-5-2.2l-4.7,0.2c-1.8,0.1-3.2,0.2-4.2,1.6c-0.2,0.4-0.2,0.9-0.2,1.4
		C60.3,96,65.6,95.3,69.8,94.4z"/>
	<path class="st5" d="M79.6,84.5c0.9-4.1,1.6-9.4,1-14.1c-0.5,0-1,0.1-1.4,0.2c-1.4,1-1.5,2.5-1.6,4.2l-0.2,4.7
		C77.3,81.8,77.7,83.8,79.6,84.5z"/>
	<path class="st5" d="M85.4,72.1c-1.2-1.1-2.7-1.7-4-1.7c0.6,4.7-0.1,10-1,14.1c-0.5,2.4-1.9,4.8-3.9,6.8c-1.9,1.9-4.4,3.4-6.8,3.9
		c-4.1,0.9-9.4,1.6-14.1,1c0,1.3,0.6,2.7,1.6,3.9c1.5,1.8,4.1,3.2,7.3,2.7c6.1-1.3,11.1-4.4,15.1-8.3c3.9-4,7-9,8.3-15.1
		C88.5,76.1,87.2,73.6,85.4,72.1z"/>
</g>
<g>
	<path class="st5" d="M228.3,39.5h0.3v4.1l8.3-5.4l-8.3-5.4v4.1h-0.3c-10.5,0-19,8.5-19,19c0,4.9,1.9,9.5,5.2,13.1l1.8-1.8
		c-2.9-3.1-4.5-7-4.5-11.2C211.9,46.9,219.2,39.5,228.3,39.5z"/>
	<path class="st5" d="M241.7,42.5l-1.8,1.8c3.1,3.1,4.8,7.2,4.8,11.6c0,9.1-7.4,16.4-16.4,16.4H228v-4.1l-8.3,5.4L228,79v-4h0.3
		c10.5,0,19-8.5,19-19C247.3,50.9,245.3,46.1,241.7,42.5z"/>
	<path class="st5" d="M239.4,64.2v-0.7V48.3v-0.7h-0.6h-21h-0.6v0.7v15.2v0.7h0.6h21H239.4z M237.7,63.3h-0.1H219h-0.1l4.1-3.5
		l3.9-3.3l0.3,0.2l0.4,0.3l0.8,0.6l0.8-0.6l0.4-0.3l0.3-0.2l3.9,3.3L237.7,63.3z M218.1,49.1l8.1,6.9l-8.1,6.9V49.1z M218.9,48.6
		h0.1h18.5h0.1l-4.1,3.5l-3.9,3.3l-0.3,0.3L229,56l0,0l-0.3,0.3l-0.1,0.1l-0.2,0.2l-0.2-0.2l-0.1-0.1l-0.3-0.3l0,0l-0.3-0.3
		l-0.3-0.3l-3.9-3.3L218.9,48.6z M238.5,62.8l-8.1-6.9l8.1-6.9V62.8z"/>
</g>
<g>
	<path class="st5" d="M128.3,22.2h0.3v4l8.3-5.3l-8.3-5.3v4h-0.3c-10.4,0-18.9,8.5-18.9,18.9c0,4.9,1.8,9.5,5.2,13l1.8-1.8
		c-2.9-3-4.4-7-4.4-11.2C112,29.5,119.3,22.2,128.3,22.2z"/>
	<path class="st5" d="M141.6,25.2l-1.8,1.8c3.1,3.1,4.8,7.2,4.8,11.5c0,9-7.3,16.3-16.3,16.3H128v-4l-8.3,5.3l8.3,5.3v-4h0.3
		c10.4,0,18.9-8.5,18.9-18.9C147.2,33.5,145.2,28.7,141.6,25.2z"/>
	<path class="st5" d="M121.9,39.1l-4.2,4.3v2.4h10.1v-2.9h-5.6l2.6-2.7c1-1,1.7-1.9,2.1-2.6c0.4-0.7,0.6-1.4,0.6-2.1
		c0-1.3-0.5-2.4-1.4-3.2s-2-1.2-3.2-1.2s-2.2,0.3-3,0.8s-1.5,1.3-2.2,2.3l2.5,1.5c0.8-1.3,1.7-1.9,2.5-1.9c0.5,0,0.9,0.2,1.2,0.5
		c0.3,0.3,0.5,0.7,0.5,1.2s-0.2,1-0.5,1.5C123.3,37.6,122.7,38.3,121.9,39.1z"/>
	<polygon class="st5" points="133.8,31.5 128.7,40 128.7,42.4 134.4,42.4 134.4,45.8 137.5,45.8 137.5,42.4 139.1,42.4 139.1,39.6 
		137.5,39.6 137.5,38.1 134.4,38.1 134.4,39.6 132.4,39.6 137.3,31.5 	"/>
</g>
</svg>
