<?xml version="1.0" encoding="utf-8"?>
<!-- Generator: Adobe Illustrator 25.2.0, SVG Export Plug-In . SVG Version: 6.00 Build 0)  -->
<svg version="1.1" id="Layer_1" xmlns="http://www.w3.org/2000/svg" xmlns:xlink="http://www.w3.org/1999/xlink" x="0px" y="0px"
	 viewBox="0 0 370 261" style="enable-background:new 0 0 370 261;" xml:space="preserve">
<style type="text/css">
	.st0{fill:#DFF3FC;}
	.st1{fill:#A2C7EB;}
	.st2{fill:none;stroke:#A2C7EB;stroke-width:0.7304;stroke-miterlimit:10;}
	.st3{fill:#242A36;}
	.st4{fill:#0097D8;}
	.st5{fill:#FFFFFF;}
	.st6{fill:none;stroke:#6F8BBF;stroke-width:0.7304;stroke-linecap:round;stroke-miterlimit:10;}
	.st7{fill:#E06A58;}
	.st8{fill:#09AA3A;}
	.st9{fill:#0A2240;}
	.st10{fill:#F9A07B;}
	.st11{fill:#0FBC49;}
	.st12{fill:#059631;}
	.st13{fill:#27C457;}
	.st14{fill:#325F73;}
	.st15{fill:#0B2D50;}
	.st16{fill:#3C738C;}
	.st17{fill:#56C4F9;}
	.st18{fill:#225570;}
	.st19{fill:none;stroke:#0B2D50;stroke-width:1.4609;stroke-linecap:round;stroke-miterlimit:10;}
	.st20{fill:none;stroke:#CC454E;stroke-width:1.4609;stroke-linecap:round;stroke-miterlimit:10;}
	.st21{fill:#262D40;}
	.st22{fill:#CC454E;}
	.st23{fill:#E8729B;}
	.st24{fill:#3D86E0;}
	.st25{fill:#3A92C9;}
	.st26{fill:none;stroke:#3A92C9;stroke-width:1.4609;stroke-linecap:round;stroke-miterlimit:10;}
	.st27{fill:none;stroke:#CC454E;stroke-width:0.7304;stroke-linecap:round;stroke-miterlimit:10;}
	.st28{fill:none;stroke:#059631;stroke-width:0.7304;stroke-miterlimit:10;}
</style>
<g id="XMLID_312_">
	<path id="XMLID_314_" class="st0" d="M321,248.2c34.7-26.4,50.1-99.5-6.2-135.4c-37.3-23.7-60.5-10.2-102.4-25.9
		C161.1,67.8,153.5,9.9,91.2,38.4c-33,15.1-55.9,57.6-59.9,106c-3.9,47.3,12.8,79.8,47.1,102C159,249.8,239.6,249.2,321,248.2z"/>
	<path id="XMLID_313_" class="st0" d="M178.5,40.2c-5.2,21,14.2,41.9,34.7,50.5c20.5,8.6,44,7.6,66,3.5c9.5-1.8,19.2-4.3,26.6-10.3
		c7.4-6,11.6-16.5,7.6-25c-3.6-7.5-12.2-11.3-20.5-13.3c-8.3-2-17-2.8-24.4-6.9c-7-3.9-11.9-10.4-18-15.6
		c-11.2-9.5-27-14.2-41.6-11.2C194.3,15,182.9,22.3,178.5,40.2z"/>
</g>
<g id="XMLID_302_">
	<path id="XMLID_309_" class="st1" d="M335.4,137v-15.9h-6c-0.7-2.8-1.8-5.4-3.2-7.8l4.3-4.3l-11.3-11.3l-4.3,4.3
		c-2.4-1.4-5-2.5-7.8-3.2v-6h-15.9v6c-2.8,0.7-5.4,1.8-7.8,3.2l-4.3-4.3L267.8,109l4.3,4.3c-1.4,2.4-2.5,5-3.2,7.8h-6V137h6
		c0.7,2.8,1.8,5.4,3.2,7.8l-4.3,4.3l11.3,11.3l4.3-4.3c2.4,1.4,5,2.5,7.8,3.2v6H307v-6c2.8-0.7,5.4-1.8,7.8-3.2l4.3,4.3l11.3-11.3
		l-4.3-4.3c1.4-2.4,2.5-5,3.2-7.8H335.4z M299.1,142.8c-7.6,0-13.8-6.2-13.8-13.8c0-7.6,6.2-13.8,13.8-13.8
		c7.6,0,13.8,6.2,13.8,13.8C312.9,136.6,306.7,142.8,299.1,142.8z"/>
	<path id="XMLID_306_" class="st2" d="M287.3,176.8l-3-7.9l-3,1.1c-0.9-1.2-1.9-2.3-3.1-3.3l1.3-2.9l-7.7-3.4l-1.3,2.9
		c-1.5-0.2-3-0.3-4.5-0.1l-1.1-3l-7.9,3l1.1,3c-1.2,0.9-2.3,1.9-3.3,3.1l-2.9-1.3l-3.4,7.7l2.9,1.3c-0.2,1.5-0.3,3-0.1,4.5l-3,1.1
		l3,7.9l3-1.1c0.9,1.2,1.9,2.3,3.1,3.3l-1.3,2.9l7.7,3.4l1.3-2.9c1.5,0.2,3,0.3,4.5,0.1l1.1,3l7.9-3l-1.1-3c1.2-0.9,2.3-1.9,3.3-3.1
		l2.9,1.3l3.4-7.7l-2.9-1.3c0.2-1.5,0.3-3,0.1-4.5L287.3,176.8z M270.4,186.6c-3.8,1.4-8-0.4-9.5-4.2c-1.4-3.8,0.4-8,4.2-9.5
		c3.8-1.4,8,0.4,9.5,4.2C276.1,181,274.2,185.2,270.4,186.6z"/>
	<path id="XMLID_303_" class="st2" d="M261.5,149.2l-2-5.3l-2,0.8c-0.6-0.8-1.3-1.6-2.1-2.2l0.9-2l-5.2-2.3l-0.9,2
		c-1-0.2-2-0.2-3-0.1l-0.8-2l-5.3,2l0.8,2c-0.8,0.6-1.6,1.3-2.2,2.1l-2-0.9l-2.3,5.2l2,0.9c-0.2,1-0.2,2-0.1,3l-2,0.8l2,5.3l2-0.8
		c0.6,0.8,1.3,1.6,2.1,2.2l-0.9,2l5.2,2.3l0.9-2c1,0.2,2,0.2,3,0.1l0.8,2l5.3-2l-0.8-2c0.8-0.6,1.6-1.3,2.2-2.1l2,0.9l2.3-5.2
		l-2-0.9c0.2-1,0.2-2,0.1-3L261.5,149.2z M250,155.8c-2.6,1-5.4-0.3-6.4-2.8c-1-2.5,0.3-5.4,2.8-6.4c2.5-1,5.4,0.3,6.4,2.8
		C253.9,151.9,252.6,154.8,250,155.8z"/>
</g>
<path id="XMLID_300_" class="st3" d="M265,52.6c0,10.3-4.8,19.6-12.4,25.5c-5.5,4.4-12.5,7-20.2,7c-7.6,0-14.6-2.6-20.2-7
	c-7.5-6-12.4-15.2-12.4-25.5c0-18,14.6-32.5,32.5-32.5C250.4,20,265,34.6,265,52.6z"/>
<g id="XMLID_287_">
	<g id="XMLID_297_">
		<path id="XMLID_299_" class="st4" d="M198.3,117.8v-12.4c0-3.4,2.7-6.1,6.1-6.1h39.1c3.4,0,6.1,2.7,6.1,6.1v12.4
			c0,3.4-2.7,6.1-6.1,6.1h-39.1C201.1,123.9,198.3,121.2,198.3,117.8z"/>
		<polyline id="XMLID_298_" class="st4" points="214.8,117.1 195.9,135.6 226.6,120.1 		"/>
	</g>
	<g id="XMLID_288_">
		<path id="XMLID_296_" class="st5" d="M203.1,105.1L203.1,105.1c0-0.6,0.4-1,0.9-1h19.3c0.5,0,0.9,0.4,0.9,0.9v0.1
			c0,0.5-0.4,0.9-0.9,0.9H204C203.5,106,203.1,105.6,203.1,105.1z"/>
		<path id="XMLID_295_" class="st5" d="M225.1,105.1L225.1,105.1c0-0.6,0.4-1,0.9-1h16.9c0.5,0,0.9,0.4,0.9,0.9v0.1
			c0,0.5-0.4,0.9-0.9,0.9H226C225.5,106,225.1,105.6,225.1,105.1z"/>
		<path id="XMLID_294_" class="st5" d="M217.7,109.2L217.7,109.2c0-0.6,0.4-1,0.9-1h24.3c0.5,0,0.9,0.4,0.9,0.9v0.1
			c0,0.5-0.4,0.9-0.9,0.9h-24.3C218.1,110.1,217.7,109.7,217.7,109.2z"/>
		<path id="XMLID_293_" class="st5" d="M203.1,109.2L203.1,109.2c0-0.6,0.4-1,0.9-1h10.8c0.5,0,0.9,0.4,0.9,0.9v0.1
			c0,0.5-0.4,0.9-0.9,0.9H204C203.5,110.1,203.1,109.7,203.1,109.2z"/>
		<path id="XMLID_292_" class="st5" d="M221.1,113.4L221.1,113.4c0-0.6,0.4-1,0.9-1h20.9c0.5,0,0.9,0.4,0.9,0.9v0.1
			c0,0.5-0.4,0.9-0.9,0.9H222C221.5,114.3,221.1,113.9,221.1,113.4z"/>
		<path id="XMLID_291_" class="st5" d="M203.1,113.4L203.1,113.4c0-0.6,0.4-1,0.9-1h14.4c0.5,0,0.9,0.4,0.9,0.9v0.1
			c0,0.5-0.4,0.9-0.9,0.9H204C203.5,114.3,203.1,113.9,203.1,113.4z"/>
		<path id="XMLID_290_" class="st5" d="M203.1,117.5L203.1,117.5c0-0.6,0.4-1,0.9-1h5.4c0.5,0,0.9,0.4,0.9,0.9v0.1
			c0,0.5-0.4,0.9-0.9,0.9H204C203.5,118.4,203.1,118,203.1,117.5z"/>
		<path id="XMLID_289_" class="st5" d="M212.1,117.5L212.1,117.5c0-0.6,0.4-1,0.9-1h29.8c0.5,0,0.9,0.4,0.9,0.9v0.1
			c0,0.5-0.4,0.9-0.9,0.9h-29.8C212.5,118.4,212.1,118,212.1,117.5z"/>
	</g>
</g>
<ellipse id="XMLID_285_" transform="matrix(0.4219 -0.9067 0.9067 0.4219 -34.5627 114.1596)" class="st3" cx="72.2" cy="84.2" rx="30" ry="30"/>
<path id="XMLID_283_" class="st3" d="M93.1,100.3c1.1-0.5,18.3,0.3,18.3,0.3L99,89.2L93.1,100.3z"/>
<g id="XMLID_277_">
	<g>
		<g id="XMLID_23_">
			
				<ellipse id="XMLID_24_" transform="matrix(0.397 -0.9178 0.9178 0.397 47.2846 140.8659)" class="st3" cx="130.9" cy="34.4" rx="29" ry="29"/>
		</g>
	</g>
</g>
<g id="XMLID_2_">
	<g id="XMLID_227_">
		<g id="XMLID_261_">
			<g id="XMLID_274_">
				<path id="XMLID_276_" class="st1" d="M200.6,200.7c-1.4-21.7,8.1-44.2,24.1-57.1C225.2,165.4,215.8,187.5,200.6,200.7z"/>
				<path id="XMLID_275_" class="st6" d="M222.1,149.4c-6.7,12.6-12.6,25.7-17.4,39.3c-5.9,16.5-10.5,34-20.6,47.8"/>
			</g>
			<g id="XMLID_271_">
				<path id="XMLID_273_" class="st1" d="M195.6,214.3c8.1-18.1,24.2-31.8,41.9-35.7C229.9,198,212.9,212.9,195.6,214.3z"/>
				<path id="XMLID_272_" class="st6" d="M233.1,182.6c-12.1,10.7-24.4,21-37,31.1"/>
			</g>
			<g id="XMLID_268_">
				<path id="XMLID_270_" class="st1" d="M190.8,230.1c10.8-16.2,30.8-24.6,47.4-20C226,226.1,205.9,234.6,190.8,230.1z"/>
				<path id="XMLID_269_" class="st6" d="M234.2,211.3c-14.2,8.9-29.5,15.4-45.3,19.4"/>
			</g>
			<g id="XMLID_265_">
				<path id="XMLID_267_" class="st1" d="M196.6,208.8c3.5-18.2-1.7-38.5-13.3-52C178.6,174.8,183.1,195.8,196.6,208.8z"/>
				<path id="XMLID_266_" class="st6" d="M184.5,161.5c2.3,16.9,6.3,32.8,12.6,48.3"/>
			</g>
			<g id="XMLID_262_">
				<path id="XMLID_264_" class="st1" d="M190.7,224.3c-1.5-18.7-11.1-36.3-25.1-46c0.8,9.9,3.4,19.5,7.6,28.2
					C178,216.5,185.1,222.8,190.7,224.3z"/>
				<path id="XMLID_263_" class="st6" d="M167.6,182.1c5.5,15.6,13.5,30.1,23.4,42.6"/>
			</g>
		</g>
		<g id="XMLID_245_">
			<g id="XMLID_258_">
				<path id="XMLID_260_" class="st1" d="M299.1,219.8c7.7-19.9,25.3-36.1,44.7-41C335.3,198.5,317.9,214.3,299.1,219.8z"/>
				<path id="XMLID_259_" class="st6" d="M339.1,183c-11.1,8.5-21.7,17.8-31.5,27.9c-12,12.3-23.2,26-37.8,34.2"/>
			</g>
			<g id="XMLID_255_">
				<path id="XMLID_257_" class="st1" d="M289,230c14.6-12.8,34.4-18.5,51.7-14.7C326.1,229.5,305,235.8,289,230z"/>
				<path id="XMLID_256_" class="st6" d="M335.2,217c-15.1,4.6-30.2,8.8-45.4,12.6"/>
			</g>
			<g id="XMLID_252_">
				<path id="XMLID_254_" class="st1" d="M278.3,242.1c16.2-10,37.3-9.4,50.1,1.5C311.1,252.9,289.9,252.2,278.3,242.1z"/>
				<path id="XMLID_253_" class="st6" d="M324.4,243c-16.2,2.1-32.4,1.7-48-1.2"/>
			</g>
			<g id="XMLID_249_">
				<path id="XMLID_251_" class="st1" d="M292.2,225.5c10.5-14.8,14.3-35,9.5-51.7C290.2,187.8,285.6,208.3,292.2,225.5z"/>
				<path id="XMLID_250_" class="st6" d="M300.9,178.4c-4.9,16-7.9,31.8-8.7,48.2"/>
			</g>
			<g id="XMLID_246_">
				<path id="XMLID_248_" class="st1" d="M280.6,236.9c6.4-17.3,5.1-36.9-3.3-51.2c-3.3,9.2-4.9,18.8-4.8,28.2
					C272.6,224.7,276.3,233.2,280.6,236.9z"/>
				<path id="XMLID_247_" class="st6" d="M277.5,189.9c-1.5,16.2-0.4,32.3,3.2,47.5"/>
			</g>
		</g>
		<g id="XMLID_228_">
			<path id="XMLID_244_" class="st1" d="M81.9,185c-7.8-23.9-29.6-43.2-55-48.7C37.6,157,57,173.4,81.9,185z"/>
			<path id="XMLID_243_" class="st1" d="M83.3,188.7c-17.1-9.7-38.5-11.8-57.1-5.7C43.4,191.6,63.8,194,83.3,188.7z"/>
			<path id="XMLID_242_" class="st1" d="M88,193.9c-18.5-2.6-37.9,2-52.9,12.4C52.1,212.5,72.6,208.5,88,193.9z"/>
			<path id="XMLID_241_" class="st1" d="M93.8,205.2c-18.3-0.1-36.3,8.6-47.1,22.8c8.2,1.6,16.8,0.7,24.3-2.7
				C78.4,221.8,84.7,216.1,93.8,205.2z"/>
			<path id="XMLID_240_" class="st1" d="M106.7,224.1c-18.1-3.1-37.3,2.5-50.3,14.6c7.8,3,16.5,3.4,24.4,1.3
				C88.7,238,95.9,233.3,106.7,224.1z"/>
			<path id="XMLID_239_" class="st1" d="M87.2,186.1C75.2,170.1,72,148.4,78.8,130c5.2,8.8,9.6,18,11.7,27.9
				C92.6,167.7,92.2,178.2,87.2,186.1z"/>
			<path id="XMLID_238_" class="st1" d="M94.5,201.6c-2.8-17.1,3-35.2,15.3-47.5C111.2,171.8,105.8,189.8,94.5,201.6z"/>
			<g id="XMLID_229_">
				<path id="XMLID_237_" class="st6" d="M32.5,140.6c36.3,23.2,64.7,57.8,79.7,97.2"/>
				<path id="XMLID_236_" class="st6" d="M79.9,138.4c4.4,17.9,7.1,36.2,8,54.6"/>
				<path id="XMLID_235_" class="st6" d="M107.1,161c-1.4,14.5-5.9,28.6-13.1,41.3"/>
				<path id="XMLID_234_" class="st6" d="M33.8,183.4c16.6,3.2,33.5,4.9,50.5,5.1"/>
				<path id="XMLID_233_" class="st6" d="M43.8,204.9c15.3-1.1,30.4-4.8,44.4-10.9"/>
				<path id="XMLID_232_" class="st6" d="M53,225.4c14.2-7.1,28.3-14.1,42.5-21.2"/>
				<path id="XMLID_230_" class="st6" d="M62.2,237.8c18.5-3.6,24-7.8,44.5-13.7"/>
			</g>
		</g>
	</g>
	<path id="XMLID_226_" class="st7" d="M179.2,204c0,0,1.6,14.7,3.4,15.8c3.2,2.1,40.2,7,40.2,7l-1.2,9.6c0,0-50.7,4.6-52.9,2
		c-3.7-4.4-10.3-25.6-10.3-25.6L179.2,204z"/>
	<path id="XMLID_224_" class="st8" d="M154.7,166.3l4.1-9.8c0,0,11.1,5.2,14.8,11.7c3.9,6.9,8.7,43.6,8.7,43.6s-19.6,4.5-23.2,2.6
		C155.5,212.3,154.7,166.3,154.7,166.3z"/>
	<path id="XMLID_223_" class="st9" d="M123.5,120.6c-2.9-1.1-5.9-2-9-1.7c-3.1,0.2-6.2,1.9-7.3,4.6c-0.7,1.9-0.4,4.2-1.6,5.9
		c-1.1,1.7-3.4,2.3-5.4,2.5c-2.1,0.1-4.2-0.1-6.3,0.1c-6.4,0.9-11,7.8-8.9,13.6c0.8,2.3,2.6,4.5,2.2,6.8c-0.4,2.5-3.1,4.2-4.2,6.6
		c-1.5,3.1,0.3,6.9,3.2,9.1c2.9,2.1,6.6,2.9,10.2,3.5c5,0.7,10.1,1.1,15.1,0c4.9-1.1,9.6-3.7,12.2-7.7c1.1-1.8,1.8-3.8,3.1-5.5
		c2.7-3.5,7.5-4.8,11.3-7.3c4.1-2.7,7.2-8,4.7-12.1c-2.4-4-8.5-4.9-10.9-8.8c-1-1.6-1.3-3.5-1.9-5.3
		C129.4,123,127.8,122.1,123.5,120.6z"/>
	<g id="XMLID_220_">
		<path id="XMLID_222_" class="st10" d="M140.2,169.2c0.7,0.8,1.6,1.7,2.8,1.8c1.2,0.1,2.3-0.8,3.1-1.7c4.1-4.4,6.9-9.8,8-15.3
			c-1-0.6-2-1.1-2.9-1.7c-0.8-0.5-1.5-1.2-1.8-2c-0.2-0.6-0.3-1.2-0.3-1.9c0.6-5.5,1.1-8.6,3-14.1c-9.2-2.1-17.8-4.5-22.8-8.7
			c-0.6,2.6-1.3,7.6-2.8,12.5c-1.6,5.3-4.2,10.4-8.5,12.7C126.5,155.9,134,162.1,140.2,169.2z"/>
		<path id="XMLID_221_" class="st7" d="M149.1,148.5c-0.1,0.7,0,1.3,0.3,1.9c-5.4,6.6-17.5-2-22.9-12.2c1.5-5,2.2-10,2.8-12.5
			c5,4.1,13.6,6.6,22.8,8.7C150.2,140,149.7,143,149.1,148.5z"/>
	</g>
	<path id="XMLID_218_" class="st11" d="M164.2,228c-1.2,7.9,7.4,16.5,7.6,20.7c-18.2,0-56.3,1.1-75.7-1.5
		c-0.9-4.9,8.7-15.9,8.7-26.8c0-1.4-0.1-3-0.2-4.7c-0.3-4.9-1-10.6-1.8-16.5c-2.2-15.9-5-32.8-2.9-36.4c4.2-6.9,13.9-11.5,18.7-13.5
		c1.7-0.7,2.7-1.1,2.8-1.1c6.1,10.3,18.4,19.1,23,18.7c1.3-0.1,5.1-1.4,7.7-14.2c1,0.6,2,1.1,3,1.6c4.8,2.5,9.3,4.6,10.6,7.8
		c3.4,8.5,6.8,29.9,6.1,37.5c-0.8,7.7-3.8,13.5-6,21.2c-0.5,1.8-1,3.7-1.3,5.8C164.3,227,164.3,227.5,164.2,228z"/>
	<path id="XMLID_216_" class="st12" d="M171.8,248.7c-18.2,0-56.3,1.1-75.7-1.5c-0.9-4.9,8.7-15.9,8.7-26.8c0-1.4-0.1-3-0.2-4.7
		c-0.3-4.9-1-10.6-1.8-16.5c3.4,3.6,8.5-11.7,10.7-7.2c12,24.3,21.5,30.6,38,30.6c4.9,0,9.4-0.7,14.3-1.8c-0.5,1.8-1,3.7-1.3,5.8
		c-0.1,0.5-0.2,0.9-0.2,1.4C163,235.9,171.5,244.5,171.8,248.7z"/>
	<path id="XMLID_214_" class="st13" d="M155.1,154.3c-0.8,5.7-3.1,13.3-9.8,15.3c-9.1,2.7-22.3-14.3-26.6-20.4
		c1.7-0.7,2.7-1.1,2.8-1.1c6.1,10.3,18.4,19.1,23,18.7c1.3-0.1,5.1-1.4,7.7-14.2C153.1,153.3,154.1,153.8,155.1,154.3z"/>
	<g id="XMLID_206_">
		<g id="XMLID_208_">
			<g id="XMLID_212_">
				<polygon id="XMLID_213_" class="st14" points="158.8,240.2 158.8,246.5 272,247.2 272.2,240 				"/>
			</g>
			<g id="XMLID_209_">
				<polygon id="XMLID_211_" class="st14" points="321,183.7 318.5,181.1 236.1,180.6 194.7,240.4 196.8,242.1 				"/>
				<polygon id="XMLID_210_" class="st15" points="237.6,182.8 196.8,242.1 274.8,242.5 321,183.7 				"/>
			</g>
		</g>
		<ellipse id="XMLID_207_" class="st16" cx="257.3" cy="216.1" rx="9.1" ry="4.5"/>
	</g>
	<g id="XMLID_175_">
		<g id="XMLID_204_">
			
				<ellipse id="XMLID_205_" transform="matrix(0.1832 -0.9831 0.9831 0.1832 14.2188 268.5655)" class="st17" cx="168.7" cy="125.7" rx="12.7" ry="8.4"/>
		</g>
		<path id="XMLID_203_" class="st15" d="M177,105.6c-0.8,6-3.5,12.6-7.4,19.9c-1.4-6-2.2-13.3-3.5-20.6c-1.2-7.3-2.8-14.6-5.5-20.6
			c-0.6-1.3-1.3-2.6-2-3.8c1.6-0.2,3.3,0,4.8,0.4c2.4,0.7,4.7,1.9,6.6,3.6c3.1,2.8,5.2,6.5,6.4,10.5
			C177.3,98.4,177.5,101.9,177,105.6z"/>
		<g id="XMLID_200_">
			<path id="XMLID_202_" class="st10" d="M172.4,111.8c0,1.2-0.1,2.4-0.2,3.6c-1.7,19.4-9.8,32.8-22.3,32.8c-17.6,0-29-19.8-29-39.1
				c0-19.1,11.7-32.9,25.4-31.3c7.9,0.9,13.7,3.5,17.8,7.4c2.7,2.6,4.7,5.6,6,9.2c1.5,3.9,2.3,8.4,2.4,13.2c0,0,0,0,0,0
				C172.5,108.9,172.4,110.3,172.4,111.8z"/>
			<path id="XMLID_201_" class="st7" d="M172.4,111.8c-0.5-1.9-1.3-3.7-2.4-5.4c-10.4,5.4-22.8,7.5-34.5,5.5
				c-2.2,1.9-4.4,3.7-6.6,5.5c0-8.8,0.2-14.8,3.6-19.1c3.2-4,8.6-5.5,13.7-6.2c5.8-0.8,11.6-0.7,17.3,0.1c2.2,0.3,4.5,0.8,6.4,1.9
				c1.5,3.9,2.3,8.4,2.4,13.2c0,0,0,0,0,0C172.5,108.9,172.4,110.3,172.4,111.8z"/>
		</g>
		<path id="XMLID_199_" class="st15" d="M174.9,99.9c-2.4,2-5.4,3.7-8.9,5.1c-9.7,3.9-22.3,5.2-32.1,4.7c-4.8,10.6-6.8,14.4-8,23.6
			c-4.7-4.4-8.5-12.5-9.7-18.9c-1.1-6.3-1-13,0.8-19.2c2.8-9.8,9.8-15.1,14.7-17.6c1.2-0.7,2.3-1.1,3.2-1.5
			c6.2-2.4,13.2-2.2,19.6-0.2c3.5,1.1,6.4,2.9,8.9,5.2c5,4.5,8,10.6,10,15.1C174,97.6,174.5,98.8,174.9,99.9z"/>
		<path id="XMLID_198_" class="st18" d="M177,105.6c-0.4-2.1-1-4.2-1.8-6.2c-0.5-1.1-1.1-2.2-1.7-3.3c-2.2-3.5-5.4-6.3-9.3-7.6
			c-1.1-1.6-2.3-3-3.5-4.2c-4.4-4.5-9.6-7.1-15.1-8c-4.6-0.7-9.3-0.3-13.7,1.2c1.2-0.7,2.3-1.1,3.2-1.5c6.2-2.4,13.2-2.2,19.6-0.2
			c3.5,1.1,6.4,2.9,8.9,5.2c2.4,0.7,4.7,1.9,6.6,3.6c3.1,2.8,5.2,6.5,6.4,10.5C177.3,98.4,177.5,101.9,177,105.6z"/>
		<g id="XMLID_187_">
			<g id="XMLID_192_">
				<path id="XMLID_197_" class="st19" d="M139.6,117.5c3.3-1.9,6.6-2.7,11.4-1"/>
				<path id="XMLID_196_" class="st19" d="M161.9,117.4c2.8-2.1,6.9-2.3,9.1,0"/>
				<path id="XMLID_195_" class="st20" d="M158.6,128c0.3,1.5,0.1,4.7-0.6,6.2"/>
				<ellipse id="XMLID_194_" class="st21" cx="147.5" cy="126.9" rx="1.3" ry="2.1"/>
				<ellipse id="XMLID_193_" class="st21" cx="165.1" cy="125.9" rx="1.3" ry="2.1"/>
			</g>
			<g id="XMLID_188_">
				<path id="XMLID_191_" class="st22" d="M156.9,137.1c0,0-0.3,0.5-0.8,1.2c-0.8,1.1-2.1,2.5-4,3.1h0c-0.8,0.2-1.6,0.3-2.5,0.2
					c-2.7-0.5-3.5-3-3.6-5c0-0.4,0-0.7,0-1.1c0-0.8,0.1-1.3,0.1-1.3C150.5,136.6,156.9,137.1,156.9,137.1z"/>
				<path id="XMLID_190_" class="st5" d="M156.9,137.1c0,0-0.3,0.5-0.8,1.2c-2.2,0-6.8-1.2-10.1-2.8c0-0.8,0.1-1.3,0.1-1.3
					C150.5,136.6,156.9,137.1,156.9,137.1z"/>
				<path id="XMLID_189_" class="st23" d="M152.1,141.4c-0.8,0.2-1.6,0.3-2.5,0.2c-2.7-0.5-3.5-3-3.6-5c1.3,0.2,2.6,0.7,3.7,1.5
					C150.8,138.9,151.7,140.1,152.1,141.4z"/>
			</g>
		</g>
		<g id="XMLID_178_">
			<path id="XMLID_186_" class="st24" d="M126,114.2c0,0-0.2-9.1,3.6-18.2c4.8-11.4,14.4-16.2,23.8-16.5c11.3-0.4,18.4,7.2,18.4,7.2
				s-3.7-6.5-11-8.4c-4.8-1.2-12-1.4-17.8,0.9c-6,2.4-13.4,9.1-16.1,16.2c-2.7,7.1-4,18.1-4,18.1L126,114.2z"/>
			<g id="XMLID_183_">
				
					<ellipse id="XMLID_185_" transform="matrix(0.9946 -0.1034 0.1034 0.9946 -12.2155 13.5383)" class="st17" cx="124.5" cy="124.6" rx="8.8" ry="13.4"/>
				
					<ellipse id="XMLID_184_" transform="matrix(0.9889 -0.1486 0.1486 0.9889 -17.3014 19.5402)" class="st24" cx="122.1" cy="125.6" rx="5.7" ry="10.1"/>
			</g>
			<g id="XMLID_179_">
				<ellipse id="XMLID_182_" class="st25" cx="153.6" cy="145.5" rx="4.7" ry="2.9"/>
				<path id="XMLID_181_" class="st26" d="M130,135.7c0,0,6.9,8.9,18.9,9.8"/>
			</g>
		</g>
	</g>
	<g id="XMLID_164_">
		<g id="XMLID_168_">
			<g id="XMLID_172_">
				<path id="XMLID_174_" class="st10" d="M158.8,223.3l-0.5,11.7c0,0-42.2,12.7-49.2,8.7c-3.4-2-6.6-12.7-9-23.2
					c-2.5-11-4.1-21.8-4.1-21.8l24.8-4.9c0,0,0,15.1,0.9,23.8c0.3,3.3,0.7,5.6,1.3,6C125.2,225,158.8,223.3,158.8,223.3z"/>
				<path id="XMLID_173_" class="st7" d="M121.7,217.5c-4.5,1.5-13.2,3.7-21.5,2.8c-2.5-11-4.1-21.8-4.1-21.8l24.8-4.9
					C120.8,193.7,120.8,208.8,121.7,217.5z"/>
			</g>
			<g id="XMLID_169_">
				<path id="XMLID_171_" class="st10" d="M157.5,223.4c6.3-1.3,16.9-4.6,21.3-5.7c3.1-0.8,11.3,3.4,13.4,7.4
					c0.9,1.7,1.8,11.6-1.4,10.6c-1.6-0.5-1.4-4.7-1.9-6.5c-0.4-1.4-1.7-2.8-3.8-3.9c1.4,3.4,1.3,6.3,1.2,9.9c0,0.8-0.1,1.6-0.5,2.3
					c-0.4,0.7-1.2,1.2-2,0.9c-0.7-0.3-1-1.2-1.2-2c-0.6-2.8-1.2-5.6-1.4-8.8c0.1,3.1,0,6.2-0.2,9.4c-0.1,2.4-1.3,3.7-2.8,3.3
					c-0.7-0.2-0.9-0.8-1.2-1.6c-0.4,1.5-1.5,3.2-3,2.6c-0.9-0.4-1.4-3.5-1.2-6.7c-2.7,1.7-5.8,2.4-9.3,2.6c-3.2,0.1-6.4-0.4-8.3-2.6
					C155.6,231.2,156.7,226.2,157.5,223.4z"/>
				<path id="XMLID_170_" class="st27" d="M177.3,238.2c0.2-2.5,0-5.1-0.7-7.5"/>
			</g>
		</g>
		<path id="XMLID_165_" class="st11" d="M118,169.2c-1.8-5.1-8.4-15.4-8.4-15.4s-10,4.2-13.6,11.3c-6,12-3,46.5-3,46.5
			c8.1,3.4,24.4,3.5,31.4,2.5C124.5,214,121.6,179.3,118,169.2z"/>
	</g>
	<path id="XMLID_162_" class="st28" d="M119.3,171.3c2.7,13.1,4.2,25.3,4.7,37.3"/>
	<rect id="XMLID_160_" x="46.3" y="245.1" class="st15" width="288" height="7.2"/>
</g>
<g>
	<path class="st5" d="M130.9,17.5h0.3v4.2l8.6-5.5l-8.6-5.5v4.2h-0.3c-10.8,0-19.6,8.8-19.6,19.6c0,5,1.9,9.8,5.4,13.5l1.9-1.9
		c-3-3.2-4.6-7.3-4.6-11.6C113.9,25.1,121.5,17.5,130.9,17.5z"/>
	<path class="st5" d="M144.7,20.6l-1.9,1.9c3.2,3.2,5,7.4,5,11.9c0,9.3-7.6,16.9-16.9,16.9h-0.3v-4.2l-8.6,5.5l8.6,5.5V54h0.3
		c10.8,0,19.6-8.8,19.6-19.6C150.4,29.2,148.4,24.3,144.7,20.6z"/>
	<path class="st5" d="M124.2,35.1l-4.3,4.4V42h10.4v-3h-5.8l2.7-2.8c1-1.1,1.8-2,2.1-2.7c0.4-0.7,0.6-1.4,0.6-2.2
		c0-1.4-0.5-2.5-1.4-3.3c-1-0.8-2.1-1.2-3.4-1.2c-1.3,0-2.3,0.3-3.2,0.8c-0.8,0.5-1.6,1.4-2.3,2.4l2.6,1.6c0.8-1.3,1.7-2,2.6-2
		c0.5,0,0.9,0.2,1.2,0.5c0.3,0.3,0.5,0.7,0.5,1.2c0,0.5-0.2,1-0.6,1.5C125.7,33.5,125.1,34.2,124.2,35.1z"/>
	<polygon class="st5" points="136.6,27.2 131.3,36 131.3,38.5 137.2,38.5 137.2,42 140.4,42 140.4,38.5 142.1,38.5 142.1,35.6 
		140.4,35.6 140.4,34.1 137.2,34.1 137.2,35.6 135.1,35.6 140.2,27.2 	"/>
</g>
<g>
	<path class="st5" d="M234.3,54.6l-0.5-0.5l15.6-15.6l1.7-0.6l2.5-3.5l-0.8-0.8l-0.8-0.8l-3.5,2.5l-0.6,1.7l-15.6,15.6l-0.5-0.5
		l-0.9,0.9l-0.7-0.7l-14.6,13.1c-1.7,1.7-1.8,4.3-0.3,5.8c1.5,1.5,4.1,1.4,5.8-0.3l13-14.6c0,0,0,0,0,0l-0.6-0.6L234.3,54.6z"/>
	<path class="st5" d="M249.2,64.1l4.3,4.3c1.1-2.5,0.6-5.5-1.5-7.6c-1.8-1.8-4.5-2.4-6.8-1.8l-7.6-7.6l-2.5,2.5l0.5,0.5l-0.9,0.9
		l0.6,0.6l-0.7,0.7l-0.6,0.6l6.4,6.4c-0.7,2.3-0.1,5,1.8,6.8c2.1,2.1,5.1,2.5,7.6,1.5l-4.3-4.3c-1-1-1-2.7,0-3.7
		C246.5,63.1,248.2,63.1,249.2,64.1z"/>
	<path class="st5" d="M222.3,45.6l6.3,6.3l1.4-1.2l0.6,0.6l0.9-0.9l0.5,0.5l2.5-2.5l-7.6-7.6c0.7-2.3,0.1-5-1.8-6.8
		c-2.1-2.1-5.1-2.5-7.6-1.5l4.3,4.3c1,1,1,2.7,0,3.7c-1,1-2.7,1-3.7,0l-4.3-4.3c-1.1,2.5-0.6,5.5,1.5,7.6
		C217.3,45.7,219.9,46.3,222.3,45.6z"/>
</g>
<g>
	<path class="st5" d="M85.2,67.6H53.5V72h31.7V67.6z M75.2,71c-0.7,0-1.2-0.5-1.2-1.2c0-0.7,0.5-1.2,1.2-1.2c0.7,0,1.2,0.5,1.2,1.2
		C76.5,70.5,75.9,71,75.2,71z M78.8,71c-0.7,0-1.2-0.5-1.2-1.2c0-0.7,0.5-1.2,1.2-1.2s1.2,0.5,1.2,1.2C80,70.5,79.5,71,78.8,71z
		 M82.4,71c-0.7,0-1.2-0.5-1.2-1.2c0-0.7,0.5-1.2,1.2-1.2c0.7,0,1.2,0.5,1.2,1.2C83.6,70.5,83,71,82.4,71z"/>
	<rect x="56" y="75.4" class="st5" width="14.7" height="1.2"/>
	<rect x="56" y="78.4" class="st5" width="14.7" height="1.2"/>
	<rect x="56" y="81.3" class="st5" width="14.7" height="1.2"/>
	<rect x="56" y="90.2" class="st5" width="14.7" height="1.2"/>
	<path class="st5" d="M54.4,93V73.7h30v4.9c0.3,0,0.6,0,0.9,0v-5.7H53.5v21.1H76c-0.2-0.3-0.5-0.6-0.7-0.9H54.4z"/>
	<path class="st5" d="M85.2,79.4c-5.8,0-10.6,4-10.6,8.8c0,4.9,4.7,8.8,10.6,8.8c0.8,0,1.6-0.1,2.4-0.2l4.6,3v-5
		c2.2-1.6,3.5-4,3.5-6.6C95.8,83.4,91.1,79.4,85.2,79.4z M86.1,93.3c-0.2,0.2-0.5,0.3-0.8,0.3c-0.3,0-0.6-0.1-0.8-0.3
		c-0.2-0.2-0.3-0.5-0.3-0.8c0-0.3,0.1-0.6,0.3-0.8c0.2-0.2,0.5-0.3,0.8-0.3c0.3,0,0.6,0.1,0.8,0.3c0.2,0.2,0.3,0.5,0.3,0.8
		C86.4,92.8,86.3,93,86.1,93.3z M87.9,87.1c-0.2,0.2-0.3,0.4-0.4,0.5c-0.1,0.1-0.2,0.2-0.4,0.4c-0.2,0.2-0.3,0.3-0.4,0.4
		c-0.1,0.1-0.2,0.2-0.3,0.3c-0.2,0.2-0.3,0.5-0.3,0.9v0.7h-1.7v-0.9c0-0.4,0-0.7,0.1-0.9c0.1-0.2,0.3-0.4,0.6-0.8l1.1-1.1
		c0.2-0.2,0.3-0.6,0.3-0.9s-0.1-0.7-0.4-0.9c-0.2-0.2-0.5-0.4-0.9-0.4c-0.4,0-0.7,0.1-0.9,0.3c-0.3,0.2-0.4,0.5-0.4,0.9h-1.8
		c0.1-0.9,0.4-1.6,1-2.1c0.6-0.5,1.3-0.7,2.2-0.7c0.9,0,1.6,0.2,2.1,0.7c0.6,0.5,0.8,1.1,0.8,2C88.3,86.3,88.2,86.7,87.9,87.1z"/>
</g>
</svg>
